<?xml version="1.0" encoding="UTF-8"?> <svg xmlns="http://www.w3.org/2000/svg" xmlns:xlink="http://www.w3.org/1999/xlink" version="1.1" id="Capa_1" x="0px" y="0px" viewBox="0 0 304.7 117" style="enable-background:new 0 0 304.7 117;" xml:space="preserve"> <style type="text/css"> .st0{fill:#FFFFFF;} .st1{fill:#39BCDF;} .st2{fill:#274084;} .st3{fill:#243772;} .st4{fill:#33B3A5;} .st5{fill:#34B3A5;} .st6{fill:#29357F;} .st7{fill:#00869E;} .st8{fill:#264184;} </style> <g> <path class="st0" d="M155.3,13.2c0,2.5,0,4.9,0,7.4c0,0.2,0,0.5,0,0.7c-0.1,2.8-1.5,4.6-4.2,5c-4.1,0.6-7.3-0.9-7.4-5.7 c-0.1-4.8,0-9.5-0.1-14.3c0-2.2,0-2.2-2.2-2.1c-0.6,0-0.6,0.2-0.6,0.7c0,5.4,0,10.8,0,16.2c0,3.7,2,6.4,5.2,7.3 c1.6,0.5,3.2,0.5,4.9,0.3c1.8-0.2,3.4-0.8,4.7-2c1.8-1.7,2.4-4,2.4-6.4c0-4.7,0-9.5,0-14.2c0-2,0-2-2-2c-0.6,0-0.8,0.2-0.8,0.8 C155.3,7.8,155.3,10.5,155.3,13.2z"></path> <path class="st0" d="M301.2,28.6c0.3,0,0.7-0.1,1.1-0.1c0.8,0,0.4-0.7,0.4-1c0-7.8,0-15.6,0-23.4c0-1.9,0-1.9-1.8-1.9 c-0.6,0-0.8,0.2-0.8,0.8c0,2,0,4,0,6c0,0.4-0.1,0.6-0.2,0.7c-0.1,0.1-0.4,0.2-0.8,0.1c-0.8-0.2-1.6-0.1-2.5-0.1c0,0,0,0,0,0 c-3.6,0.1-6.4,2-7.6,5.4c-1.1,3.1-1.1,6.3-0.1,9.5c0.8,2.6,2.7,4,5.4,4.3c2.1,0.2,4.1-0.3,5.8-2.2c0.2,0.5,0.3,0.8,0.4,1.1 C300.6,28.4,300.9,28.6,301.2,28.6z M298.5,25.6c-2.7,2.1-6.3,0.7-7.2-2.8c-0.6-2.1-0.6-4.3,0-6.5c0.8-3.1,3.3-4.6,6.8-4.2 c1.9,0.3,1.9,0.3,1.9,2.2c0,1.3,0,2.6,0,3.9c0,1.5,0,2.9,0.1,4.3C300.1,23.8,299.5,24.8,298.5,25.6z"></path> <path class="st0" d="M165,11.5c-0.3-0.4-0.3-0.8-0.4-1.3c-0.3-1.1-1.2-0.4-1.9-0.5c-0.6-0.1-0.4,0.5-0.4,0.8c0,5.4,0,10.8,0,16.2 c0,1.8,0,1.8,1.8,1.9c0.7,0,0.9-0.1,0.9-0.8c0-3.9,0-7.9,0-11.8c0-0.3,0-0.7,0.1-1c0.6-1.9,2.9-3.4,5.2-3.2 c2.1,0.2,3.4,1.4,3.5,3.8c0.2,3.7,0.1,7.3,0.1,11c0,2.1,0,2.1,2,2c0.5,0,0.7-0.2,0.7-0.7c0-4.2,0-8.4,0-12.6c0-2.8-1.3-4.8-3.4-5.5 c-2.8-0.9-5.3-0.5-7.6,1.4C165.4,11.3,165.3,11.5,165,11.5z"></path> <path class="st0" d="M235.8,28.9c1.7,0,3-0.2,4.2-0.9c1.8-1,2.8-2.4,2.9-4.5c0.1-2.1-1-3.5-2.7-4.5c-0.7-0.4-1.5-0.7-2.3-1 c-1.1-0.5-2.2-0.8-3.3-1.4c-0.9-0.6-1.4-1.4-1.3-2.5c0.1-1.1,0.8-1.8,1.8-2.1c1.6-0.6,3.2-0.4,4.7,0.4C241,13,241,13.1,242,12 l0.1-0.1c0.6-0.5,0.4-0.9-0.1-1.2c-2.7-1.7-5.6-1.9-8.5-0.6c-1.8,0.9-2.8,2.4-2.8,4.4c0,2.1,1,3.5,2.8,4.4c0.7,0.3,1.4,0.6,2.1,0.9 c1,0.4,2,0.7,2.9,1.2c1.3,0.7,1.9,1.6,1.7,2.8c-0.2,1.1-1.1,2-2.4,2.4c-1.9,0.4-3.6,0.1-5.3-0.9c-0.5-0.3-0.9-1-1.4-0.9 c-0.5,0.2-0.7,0.9-1.2,1.3c-0.6,0.5-0.3,0.8,0.2,1.2C232,28.4,234,28.9,235.8,28.9z"></path> <path class="st0" d="M194.3,25.8c-0.1-0.2-0.2-0.3-0.2-0.4c-1.3-5.1-3.1-10-4.7-15.1c-0.1-0.3-0.1-0.7-0.7-0.7c-0.8,0-1.6,0-2.5,0 c0.1,0.3,0.2,0.6,0.2,0.8c1.8,5.2,3.6,10.5,5.4,15.7c0.3,0.7,0.3,1.7,0.8,2.2c0.6,0.5,1.6,0.1,2.4,0.2c0.6,0.1,0.8-0.2,1-0.7 c1.5-4.4,3-8.9,4.5-13.3c0.5-1.6,1.1-3.2,1.6-4.8c-0.7,0-1.3,0.1-1.8,0c-0.8-0.1-1.1,0.2-1.4,1C197.5,15.7,195.8,20.6,194.3,25.8z"></path> <path class="st0" d="M223.5,11.8c-0.2-0.6-0.3-1-0.4-1.5c-0.3-1.1-1.2-0.4-1.8-0.5s-0.3,0.5-0.4,0.8c0,5.4,0,10.9,0,16.3 c0,1.7,0,1.7,1.8,1.8c0.8,0,0.9-0.3,0.9-0.9c0-4,0-7.9,0-11.9c0-1.4,0.6-2.3,1.8-2.9c1-0.6,2-0.7,3.2-0.8c0.6,0,1.5,0.5,1.8,0 s0-1.3,0.1-2c0.1-0.6-0.2-0.7-0.7-0.8C227.1,9.2,225.1,9.7,223.5,11.8z"></path> <path class="st0" d="M246.9,19.1c0,2.5,0,5.1,0,7.6c0,1.8,0,1.8,1.9,1.9c0.7,0,0.9-0.2,0.9-0.8c0-5.4,0-10.7,0-16.1 c0-2,0-1.9-1.9-1.9c-0.7,0-0.8,0.3-0.8,0.9C246.9,13.4,246.9,16.3,246.9,19.1z"></path> <path class="st0" d="M184.1,19.2c0-2.6,0-5.1,0-7.7c0-1.8,0-1.7-1.8-1.8c-0.7,0-0.9,0.2-0.9,0.9c0,5.3,0,10.7,0,16c0,2,0,2,2,2 c0.6,0,0.7-0.2,0.7-0.7C184,25,184.1,22.1,184.1,19.2z"></path> <path class="st0" d="M207.5,89c-0.5-0.4-1.2-0.3-1.8-0.5c-0.5-0.1-0.6-0.3-0.5-0.8c0.2-0.9,0.4-1.7,0.5-2.6 c0.1-0.5,0.3-0.6,0.7-0.5c1.1,0.3,2.3,0.4,3.4,0.3c2.4-0.3,3.8-1.8,4.8-3.9c0.7-1.4,0.9-2.8,0.3-4.4c-3.3-9.2-6.5-18.5-9.8-27.7 c-0.4-1.1-0.4-1.1,0.7-1.1c0.9,0,1.9,0,2.8,0c0.5,0,0.8,0.1,0.9,0.6c2.6,8,5.4,16,7.7,24.1c0.1,0.2,0.1,0.4,0.3,0.6 c0.7-2.9,1.5-5.8,2.4-8.6c1.7-5.3,3.3-10.6,5-16c0.2-0.6,0.4-0.8,1-0.7c1.2,0.1,2.4,0,3.7,0c-0.2,0.8-0.5,1.5-0.7,2.2 c-3.3,9.9-6.6,19.9-9.9,29.8c-0.8,2.5-1.9,4.8-3.8,6.5c-1.6,1.5-3.5,2.2-5.6,2.4c-0.2,0-0.4-0.1-0.5,0.2 C208.7,89,208.1,89,207.5,89z"></path> <path class="st0" d="M192.2,39.4c0.5,0,1,0,1.6,0c1.8,0,1.8,0,2.4,1.8c3.8,11.8,7.6,23.6,11.5,35.3c0.2,0.8,0.3,1.1-0.7,1 c-0.4-0.1-0.9,0-1.3,0c-2.4,0-2.4,0-3.1-2.3c-0.9-2.7-1.7-5.5-2.6-8.2c-0.1-0.5-0.4-0.7-0.9-0.6c-4.6,0-9.3,0-13.9,0 c-0.6,0-0.8,0.3-0.9,0.7c-1,3.3-2.1,6.5-3.1,9.8c-0.2,0.6-0.4,0.7-1,0.7c-1,0-2,0-3,0c-0.7,0-0.7-0.2-0.5-0.8 c1.6-4.9,3.2-9.9,4.8-14.8c2.4-7.3,4.7-14.5,7-21.8c0.2-0.6,0.4-0.8,1-0.7C190.4,39.4,191.3,39.4,192.2,39.4z M192.2,42.3 c-0.2,0.3-0.2,0.3-0.2,0.3c-1.8,6.4-3.9,12.7-6,19.1c-0.2,0.8,0,0.8,0.6,0.8c3.7,0,7.3,0,11,0c0.9,0,0.8-0.3,0.6-0.9 c-1.4-4.4-2.8-8.9-4.2-13.3C193.4,46.3,192.8,44.4,192.2,42.3z"></path> <path class="st0" d="M266.7,64.1c-2.9,0-5.8,0-8.7,0c-0.3,0-0.7-0.1-0.7,0.5c0.2,1.8,0.4,3.5,1.2,5.1c1.2,2.6,3.3,3.9,6,4.2 c3.1,0.4,6,0,8.6-1.8c0.3-0.2,0.5-0.2,0.7,0.1c0.4,0.8,0.8,1.6,1.3,2.3c0.3,0.5,0.2,0.7-0.2,1c-1.8,1.2-3.8,1.8-6,2.1 c-2.5,0.3-5,0.3-7.4-0.3c-3.4-0.9-5.9-3-7.1-6.3c-1.8-5.2-2-10.5-0.2-15.7c2.3-6.8,9.9-9.9,16.4-7c3.5,1.6,5.1,4.5,5.7,8.2 c0.4,2.3,0.1,4.6-0.1,6.8c0,0.6-0.2,0.8-0.9,0.8C272.5,64.1,269.6,64.1,266.7,64.1z M264.8,60.6c2.2,0,4.4,0,6.7,0 c0.3,0,0.7,0.2,0.8-0.4c0.1-2.4,0.1-4.8-1.4-6.8c-2.1-3-7.7-3.2-10.5-0.5c-1.8,1.8-2.5,4-2.8,6.5c-0.1,1.3-0.4,1.2,1.1,1.2 C260.6,60.6,262.7,60.6,264.8,60.6z"></path> <path class="st0" d="M285.8,51c2-2.1,4.3-3.3,7-3.6c3.3-0.4,6.4,0,8.8,2.5c1.7,1.8,2.4,4.1,2.4,6.5c0.1,6.8,0,13.6,0,20.4 c0,0.5-0.2,0.7-0.7,0.7c-0.9,0-1.8-0.1-2.7,0c-0.7,0-0.9-0.1-0.9-0.8c0-6,0-12.1,0-18.1c0-0.9-0.1-1.7-0.2-2.5 c-0.6-3.2-2.8-5-6.1-4.9c-2.6,0-4.7,1.1-6.3,3.1c-0.8,1-1.2,2.1-1.2,3.5c0.1,6.3,0,12.6,0,19c0,0.7-0.2,0.9-0.9,0.8 c-0.9-0.1-1.8,0-2.7,0c-0.6,0-0.8-0.1-0.8-0.7c0-2.2,0-4.5,0-6.7c0-7.1,0-14.2,0-21.3c0-0.7,0.2-0.9,0.9-0.9c2.4,0,2.4,0,3,2.2 C285.5,50.3,285.6,50.6,285.8,51z"></path> <path class="st0" d="M239.1,78c-3.6-0.1-6.9-0.9-9.7-3.2c-0.6-0.5-0.7-0.8-0.1-1.3c0.6-0.6,1.1-1.2,1.6-1.9 c0.4-0.5,0.6-0.6,1.1-0.1c2.9,2.5,6.3,3.3,10,2.4c2.6-0.6,4-2.8,3.5-5.2c-0.2-1.1-0.9-1.9-1.8-2.5c-1.3-0.9-2.9-1.4-4.4-2 c-1.6-0.6-3.2-1.2-4.7-2c-5.5-3-5.1-10.4-0.1-13.4c4-2.4,10.6-2,14.3,0.9c0.6,0.5,0.7,0.8,0.1,1.3c-0.1,0.1-0.2,0.3-0.4,0.4 c-0.5,0.6-1,1.4-1.7,1.7s-1.2-0.7-1.9-1.1c-2.3-1.1-4.6-1.4-7-0.7c-1.8,0.5-2.9,1.7-3.1,3.6c-0.2,1.8,0.7,3,2.1,3.9 c1.6,1,3.5,1.6,5.3,2.3c1.3,0.5,2.5,1,3.7,1.7c5.3,3,4.9,10,0.3,13.1C244.1,77.5,241.6,78,239.1,78z"></path> <path class="st0" d="M155.3,13.2c0-2.7,0-5.4,0-8.1c0-0.6,0.2-0.8,0.8-0.8c2,0,2,0,2,2c0,4.7,0,9.5,0,14.2c0,2.4-0.6,4.6-2.4,6.4 c-1.3,1.2-2.9,1.8-4.7,2c-1.6,0.2-3.3,0.2-4.9-0.3c-3.2-0.9-5.2-3.7-5.2-7.3c0-5.4,0-10.8,0-16.2c0-0.5,0.1-0.7,0.6-0.7 c2.2-0.1,2.2-0.1,2.2,2.1c0,4.8,0,9.5,0.1,14.3c0.1,4.7,3.3,6.3,7.4,5.7c2.6-0.4,4-2.2,4.2-5c0-0.2,0-0.5,0-0.7 C155.3,18.1,155.3,15.6,155.3,13.2z"></path> <path class="st0" d="M151.5,62.6c-1.4,1.7-3.2,2.3-5.2,2.3c-2.9-0.1-5-1.4-6-4.1c-1.2-3.4-1.2-6.9,0.2-10.3 c1.3-3.1,3.9-4.6,7.1-4.8c0.9-0.1,1.9-0.1,2.8,0.1c0.7,0.2,1,0,1-0.8c-0.1-2,0-4,0-5.9c0-0.6,0.2-0.8,0.8-0.8c1.9,0,1.9,0,1.9,1.8 c0,7.9,0,15.7,0,23.6c0,0.3,0.3,1-0.4,0.8c-0.6-0.1-1.5,0.6-1.8-0.6C151.8,63.5,151.7,63.1,151.5,62.6z M151.5,54.1 c0-1.3,0-2.6,0-3.9c0-1.9,0-1.9-1.9-2.1c-3.8-0.5-6.4,1.3-7.1,5.1c-0.1,0.7-0.2,1.4-0.2,2.1c0,1.6,0.1,3.2,0.8,4.7 c1.3,2.7,4.8,3.4,7,1.4c0.9-0.8,1.4-1.7,1.3-3C151.4,57,151.5,55.5,151.5,54.1z"></path> <path class="st0" d="M265.8,28.2c0.1,0.2,0.2,0.4,0.3,0.5c0.4,0.2,1-0.1,1.5-0.1c0.6,0.1,0.3-0.5,0.3-0.8c0-7.9,0-15.7,0-23.6 c0-0.9,0-1.4-0.2-1.6c0,0,0,0-0.1,0c0,0,0,0-0.1,0c-0.3-0.1-0.7-0.1-1.4-0.1c-0.6,0-0.8,0.1-0.8,0.8c0,2,0,4.1,0,6.1 c0,0.7-0.2,0.8-0.8,0.7c-0.9-0.2-1.8-0.2-2.7-0.2c-3.6,0-6.5,2.1-7.7,5.5c-0.9,2.6-1,5.3-0.4,8c0.3,1.5,0.8,2.7,1.6,3.6 c1.2,1.4,3.1,2.1,5.5,2c1.8,0,3.3-0.8,4.5-2.2c0.1,0.3,0.2,0.6,0.3,0.9C265.7,27.8,265.7,28,265.8,28.2z M265.2,18.2 c0,1.4,0,2.9-0.1,4.3c0.1,1.3-0.4,2.2-1.3,3c-2.2,2-5.7,1.3-7-1.4c-0.7-1.5-0.8-3.1-0.8-4.7c0-0.7,0.1-1.3,0.2-2 c0.6-3.8,3.2-5.7,7.1-5.2c1.9,0.2,1.9,0.2,1.9,2.1C265.2,15.6,265.2,16.9,265.2,18.2z"></path> <path class="st0" d="M217.5,15.3c-0.3-2.5-1.4-4.5-3.9-5.4c-1.8-0.7-3.6-0.8-5.3-0.2c-2.1,0.8-3.9,2.5-4.6,4.8 c-1.1,3.2-1,6.4,0,9.6c0.6,2.1,2,3.6,4.2,4.2c2.2,0.6,4.5,0.7,6.7,0c0.2-0.1,0.3-0.1,0.5-0.2c1.9-0.7,1.9-0.8,0.8-2.5 c-0.2-0.3-0.3-0.4-0.5-0.4c0,0-0.1,0-0.1,0.1c-0.5,0.3-1,0.6-1.5,0.7c0,0-0.1,0-0.1,0c-0.1,0-0.3,0.1-0.4,0.1 c-1.2,0.3-2.4,0.3-3.7,0.2c-2.1-0.3-3.4-1.5-4-3.5c-0.2-0.6-0.3-1.3-0.4-2c-0.1-0.4,0-0.7,0.4-0.7c0.1-0.1,0.3-0.1,0.5-0.1 c1.8,0,3.5,0,5.3,0c1.8,0,3.5-0.1,5.5-0.1c0.1,0,0.2,0,0.2,0c0.2-0.1,0.3-0.3,0.4-0.7C217.6,18,217.7,16.6,217.5,15.3z M212.6,17.8 c-0.8,0-1.6,0-2.4,0c-1.4,0-2.7,0-4.1,0.1c-0.5,0-0.7-0.1-0.6-0.7c0.2-0.8,0.3-1.6,0.6-2.4c1.1-2.7,3.9-3.8,6.5-2.7 c1.3,0.6,1.9,1.7,2.2,3C215.3,17.7,215.2,17.8,212.6,17.8z"></path> <path class="st0" d="M165.8,56c-1.7,0-3.5,0-5.2,0c-0.7,0-0.8,0.2-0.7,0.8c0.1,0.7,0.2,1.4,0.4,2.1c0.7,2.1,2.2,3.3,4.4,3.5 c1.8,0.1,3.5-0.1,5-1.1c0.1,0,0.2-0.2,0.2-0.1c0.7,0.3,0.7,1.1,1.2,1.6c0.3,0.3,0,0.5-0.2,0.7c-1,0.6-2.1,1-3.3,1.2 c-1.6,0.2-3.3,0.3-4.9-0.1c-2.3-0.5-4-1.9-4.8-4.2c-1.1-3.3-1.2-6.6,0-9.9c1.8-5.1,7-5.8,10.3-4.5c2.4,1,3.5,3,3.7,5.5 c0.1,1.3,0,2.6,0,3.8c0,0.6-0.3,0.8-0.9,0.8C169.2,55.9,167.5,56,165.8,56z M164.5,53.7c1.3,0,2.7,0,4,0c0.6,0,0.8-0.2,0.8-0.7 c0-1.1-0.1-2.3-0.6-3.3c-0.5-0.9-1.2-1.5-2.1-1.9c-2.7-0.9-5.2,0.4-6.2,3c-0.2,0.5-0.3,1.1-0.4,1.7c-0.2,1.3-0.3,1.2,1,1.2 C162.2,53.8,163.4,53.7,164.5,53.7z"></path> <path class="st0" d="M286.4,26.7c-0.1-0.1-0.2-0.1-0.3-0.2c-1.1-0.3-1.6-0.6-1.8-1.4c-0.1-0.3-0.2-0.6-0.2-1.1 c0-1.3,0.1-2.9,0.1-4.6c-0.1-1.1-0.1-2.3-0.1-3.3c0-0.4,0-0.9,0-1.3c0-1-0.2-1.9-0.6-2.7c-0.7-1.2-1.9-2-3.7-2.3 c-0.4,0-0.8-0.1-1.2-0.1c-2.6-0.1-5,0.5-6.8,2.6c-0.1,0.1-0.2,0.2-0.3,0.3c0,0,0,0,0.1,0.1c0.6,0.4,1,1.1,1.8,1.2 c0,0,0.1-0.1,0.2-0.2c1.4-1.9,3.4-2.2,5.6-1.8c1.2,0.2,1.9,1,2.2,2.1c0.1,0.2,0.1,0.4,0.2,0.6c0.2,1,0.2,1.9,0.2,2.9 c0,0.4-0.1,0.5-0.5,0.5c-0.9,0-1.8,0-2.6,0.1c-2.1,0.2-4.1,0.6-5.8,1.9c-1.7,1.2-2.3,3-1.9,5c0,0.2,0.1,0.4,0.1,0.6 c0.6,1.5,1.8,2.6,3.5,2.9c2.6,0.6,4.9,0.1,6.8-1.8c0.3-0.3,0.5-0.5,0.8,0.1c0.5,0.9,1.3,1.4,2.3,1.6 C286.1,28.7,286.6,28.3,286.4,26.7z M280.3,25.5c-1.4,1-2.8,1.5-4.5,1.1c-1.2-0.3-2.1-1-2.3-2.2c-0.3-1.3,0.2-2.4,1.3-3.1 c1.4-1,3.1-1.2,4.7-1.3c2.1-0.2,2.1-0.2,2.1,1.9c0,0.1,0,0.1,0,0.2C281.8,23.5,281.6,24.6,280.3,25.5z"></path> <path class="st0" d="M165,11.5c0.3,0,0.4-0.2,0.5-0.4c2.3-1.9,4.9-2.3,7.6-1.4c2.2,0.7,3.4,2.8,3.4,5.5c0,4.2,0,8.4,0,12.6 c0,0.5-0.1,0.7-0.7,0.7c-2,0-2,0.1-2-2c0-3.7,0.1-7.3-0.1-11c-0.2-2.4-1.4-3.7-3.5-3.8c-2.2-0.2-4.6,1.3-5.2,3.2 c-0.1,0.3-0.1,0.7-0.1,1c0,3.9,0,7.9,0,11.8c0,0.7-0.2,0.9-0.9,0.8c-1.8,0-1.8,0-1.8-1.9c0-5.4,0-10.8,0-16.2 c0-0.3-0.3-0.9,0.4-0.8c0.6,0.1,1.5-0.6,1.9,0.5C164.7,10.7,164.8,11.2,165,11.5z"></path> <path class="st0" d="M235.8,28.9c-1.9-0.1-3.9-0.5-5.7-1.8c-0.5-0.4-0.7-0.7-0.2-1.2c0.4-0.4,0.7-1.1,1.2-1.3 c0.5-0.2,0.9,0.6,1.4,0.9c1.7,0.9,3.4,1.3,5.3,0.9c1.3-0.3,2.2-1.2,2.4-2.4c0.2-1.2-0.4-2.1-1.7-2.8c-0.9-0.5-1.9-0.8-2.9-1.2 c-0.7-0.3-1.4-0.6-2.1-0.9c-1.8-0.9-2.9-2.3-2.8-4.4c0-2.1,1-3.6,2.8-4.4c2.9-1.4,5.7-1.1,8.5,0.6c0.6,0.4,0.8,0.7,0.1,1.2 l-0.1,0.1c-1,1-0.9,1-2.2,0.4c-1.5-0.8-3.1-1-4.7-0.4c-1,0.4-1.6,1.1-1.8,2.1c-0.1,1.1,0.4,1.9,1.3,2.5c1,0.7,2.2,1,3.3,1.4 c0.8,0.3,1.5,0.6,2.3,1c1.8,1,2.8,2.4,2.7,4.5c-0.1,2-1.1,3.5-2.9,4.5C238.9,28.7,237.5,28.9,235.8,28.9z"></path> <path class="st0" d="M194.3,25.8c1.4-5.2,3.2-10.1,4.7-15.1c0.2-0.8,0.5-1.1,1.4-1c0.6,0.1,1.1,0,1.8,0c-0.6,1.7-1.1,3.2-1.6,4.8 c-1.5,4.4-3,8.9-4.5,13.3c-0.2,0.5-0.4,0.8-1,0.7c-0.8-0.1-1.8,0.3-2.4-0.2c-0.5-0.4-0.6-1.4-0.8-2.2c-1.8-5.2-3.6-10.5-5.4-15.7 c-0.1-0.3-0.1-0.5-0.2-0.8c0.9,0,1.7,0,2.5,0c0.5,0,0.6,0.3,0.7,0.7c1.6,5,3.4,10,4.7,15.1C194.1,25.5,194.2,25.6,194.3,25.8z"></path> <path class="st0" d="M223.5,11.8c1.6-2.1,3.7-2.6,6-2.4c0.5,0,0.8,0.2,0.7,0.8c-0.1,0.7,0.2,1.5-0.1,2s-1.2-0.1-1.8,0 c-1.1,0-2.2,0.2-3.2,0.8c-1.1,0.6-1.8,1.5-1.8,2.9c0.1,4,0,7.9,0,11.9c0,0.7-0.1,1-0.9,0.9c-1.8-0.1-1.8,0-1.8-1.8 c0-5.4,0-10.9,0-16.3c0-0.3-0.3-0.9,0.4-0.8c0.6,0.1,1.5-0.6,1.8,0.5C223.1,10.7,223.3,11.2,223.5,11.8z"></path> <path class="st0" d="M246.9,19.1c0-2.9,0-5.7,0-8.6c0-0.6,0.1-0.9,0.8-0.9c1.9,0,1.9,0,1.9,1.9c0,5.4,0,10.7,0,16.1 c0,0.7-0.2,0.9-0.9,0.8c-1.9,0-1.9,0-1.9-1.9C246.9,24.2,246.9,21.7,246.9,19.1z"></path> <path class="st0" d="M184.1,19.2c0,2.9,0,5.8,0,8.7c0,0.5-0.1,0.7-0.7,0.7c-2,0-2,0-2-2c0-5.3,0-10.7,0-16c0-0.7,0.2-0.9,0.9-0.9 c1.8,0,1.8,0,1.8,1.8C184.1,14,184.1,16.6,184.1,19.2z"></path> <path class="st0" d="M276.6,36.8c-1.9,1.2-3.7,2.3-5.5,3.4c-1.6,1-3.2,2-4.8,3c-0.4,0.3-0.7,0.3-1.1-0.1c-0.7-0.5-1.4-1-2.1-1.6 c0.9-0.6,1.6-1.2,2.4-1.8c2.1-1.6,4.2-3.1,6.3-4.7c0.5-0.4,0.8-0.4,1.3-0.1C274.2,35.5,275.4,36.1,276.6,36.8z"></path> <path class="st0" d="M250.1,4.2c0,1.1-0.8,2-1.9,2c-1.1,0-2-0.8-2-1.9c0-1.2,0.8-2,2-2C249.3,2.3,250.1,3.1,250.1,4.2z"></path> <path class="st0" d="M184.6,4.2c0,1.2-0.8,2-2,2c-1.1,0-1.9-0.8-1.9-1.9c0-1.2,0.8-2.1,2-2C183.7,2.3,184.6,3.1,184.6,4.2z"></path> <path class="st1" d="M117,77.2c0.1,0,0.1,0.1,0.1,0.2C117,77.5,116.9,77.4,117,77.2C116.9,77.3,116.9,77.3,117,77.2z"></path> <path class="st2" d="M117.2,61.8c-0.3,0.4-0.2,0.9-0.2,1.4c-0.9,10.9-4.5,20.7-10.9,29.5c-0.3,0.5-0.4,0.8-0.1,1.3 c3.6,7.4,7.2,14.9,10.8,22.3c0.3,0.7,0.3,0.7-0.4,0.7c-0.7,0-1.5,0-2.2,0c-0.5,0-0.7-0.2-0.9-0.6c-3.2-6.6-6.4-13.1-9.5-19.7 c-0.3-0.5-0.4-0.5-0.7-0.1c-9.2,10.5-20.6,17-34.3,19.5c-4.2,0.8-8.5,1-12.8,0.8c-12.4-0.6-23.5-4.7-33.3-12.3 c-3.2-2.4-6-5.2-8.6-8.2c-0.1-0.1-0.1-0.2-0.3-0.3c-0.7,1.4-1.3,2.7-2,4c-2.6,5.4-5.3,10.9-7.9,16.3c-0.2,0.4-0.4,0.6-0.8,0.5 c-1,0-2,0-3,0c0.5-1.1,1-2.2,1.5-3.2c3.2-6.6,6.4-13.3,9.7-19.9c0.2-0.4,0.2-0.7-0.1-1C5.7,85.4,2.3,77.1,0.8,68 c-0.5-2.7-0.6-5.4-0.8-8.2c0-0.2,0-0.4,0.1-0.6c0.3-0.2,0.1-0.5,0.1-0.8c0-19.1,0-38.2,0-57.4c0-0.9,0-0.9,1-0.9 c38.7,0,77.3,0,116,0C117.2,20.7,117.2,41.3,117.2,61.8z M113.5,3.5C113.5,3.4,113.4,3.4,113.5,3.5c-0.3,0-0.4,0-0.6,0 c-0.2-0.2-0.4-0.1-0.7-0.1c-16.4,0-32.8,0-49.2,0c-0.2,0-0.5-0.1-0.7,0.1v0.1c0,0.1,0.1,0.2,0.1,0.4c4.2,8.6,8.4,17.3,12.5,25.9 c9,18.6,18,37.2,27,55.7c0.6,1.3,1.2,2.6,1.9,3.9c0.1-0.1,0.1-0.1,0.2-0.1c0.1-0.1,0.2-0.3,0.3-0.4c6.1-9.2,9.2-19.3,9.2-30.4 c0-18.1,0-36.2,0-54.3c0-0.2,0-0.4,0-0.7C113.5,3.6,113.5,3.6,113.5,3.5z M97.2,83.8c0.1,0,0.1,0.2,0.2,0.1 C97.4,83.8,97.4,83.7,97.2,83.8c0.1-0.1,0.1-0.2,0.1-0.2c-2-4.1-3.9-8.2-5.9-12.2c-0.1-0.2-0.3-0.4-0.5-0.4 c-1.1-0.3-2.2-0.4-3.3-0.2c-2.1,0.5-3.8,1.7-5.2,3.2c-0.9,1-2,1.8-3.1,2.5c-3.2,1.9-6.5,2-9.8,0.1c-1.2-0.7-2.3-1.6-3.3-2.6 c-0.9-1-1.9-1.7-3.1-2.4c-2.2-1.2-4.4-1.3-6.6-0.1c-1.3,0.7-2.4,1.5-3.4,2.5c-1.1,1.2-2.4,2.2-3.9,2.9c-1.8,0.9-3.6,1.3-5.6,0.9 c-2.7-0.5-4.8-1.9-6.6-3.8c-0.7-0.7-1.4-1.3-2.2-1.8c-3-2-5.8-2-8.8,0c-0.3,0.2-0.5,0.5-0.7,0.8c-2,4.2-4.1,8.4-6.1,12.7 c-0.1,0.1-0.2,0.2,0,0.3c1.2-0.6,2.3-1.5,3.3-2.5c1.2-1.3,2.6-2.3,4.3-3.1c1.6-0.7,3.3-1.1,5-0.8c2.7,0.5,4.8,1.9,6.7,3.8 c1.1,1.1,2.3,2.1,3.7,2.7c1.1,0.5,2.3,0.8,3.5,0.7c2.4-0.3,4.3-1.6,5.9-3.3c1.3-1.3,2.7-2.4,4.3-3.1s3.3-1.1,5-0.8 c2.7,0.5,4.8,1.9,6.7,3.8c0.9,0.9,1.8,1.6,2.8,2.3c2.6,1.6,5.1,1.6,7.7,0c0.8-0.5,1.5-1,2.1-1.6c0.8-0.8,1.6-1.6,2.5-2.3 c4-3,8-3,12.1-0.2C95.6,82.2,96.4,83,97.2,83.8z M58.6,3.6c-0.1,0.2-0.2,0.4-0.2,0.5c-5.7,11.7-11.3,23.4-17,35.1 c-2.9,6-5.8,12-8.7,18.1c-0.1,0.3-0.4,0.5,0.2,0.7c2.2,0.7,4,2,5.5,3.6c1.1,1.1,2.3,2,3.7,2.6c1.9,0.9,3.8,0.9,5.8,0 c1.4-0.6,2.6-1.5,3.6-2.6c1-1,2.1-1.9,3.4-2.7c3.1-1.8,6.2-1.8,9.3-0.1c1.3,0.7,2.4,1.6,3.5,2.7c0.8,0.9,1.8,1.6,2.9,2.3 c2.5,1.4,4.9,1.5,7.4,0.1c1.1-0.6,2-1.4,2.9-2.2c1.1-1.2,2.4-2.2,3.9-2.9c0.5-0.2,0.5-0.4,0.3-0.9C76.5,40.7,68.3,23.6,60,6.5 C59.5,5.6,59.1,4.6,58.6,3.6z M58.5,113.5c2.7,0,5.5-0.2,8.2-0.6c7.4-1.1,14.3-3.6,20.7-7.5c3.4-2.1,6.6-4.6,9.5-7.4 c0.3-0.3,0.3-0.5,0-0.8c-0.5-0.4-1.1-0.9-1.5-1.4c-1-1-2-1.8-3.2-2.4c-2.1-1.1-4.3-1.1-6.5,0c-0.9,0.5-1.8,1-2.5,1.7 c-1,0.9-2,2-3.1,2.8c-2.6,1.7-5.3,2.6-8.4,1.6c-2-0.7-3.8-1.9-5.3-3.4c-0.8-0.8-1.6-1.6-2.6-2.2c-1.5-0.9-3.1-1.5-4.9-1.3 c-2.3,0.4-4.1,1.6-5.7,3.2c-1.1,1.2-2.4,2.2-3.8,2.9c-1.7,0.9-3.5,1.3-5.5,1c-2.7-0.4-4.9-1.9-6.8-3.8c-1.1-1.1-2.3-2-3.7-2.7 c-1.2-0.5-2.4-0.9-3.7-0.7c-2.3,0.3-4.1,1.6-5.7,3.2c-0.8,0.8-1.6,1.5-2.5,2.1c-0.6,0.3-0.5,0.5-0.1,0.9 C31.8,108.4,44.2,113.3,58.5,113.5z M13.9,25.6c0-0.2,0-0.3,0-0.4c0-7,0-14.1,0-21.1c0-0.5-0.2-0.6-0.6-0.6c-3,0-5.9,0-8.9,0 c-0.7,0-0.8,0.2-0.8,0.8c0,18,0,36,0,54c0,2.3,0.1,4.6,0.4,6.9c1,7.4,3.3,14.3,7,20.8c0.7,1.2,1.4,2.4,2.3,3.6 c0.1-0.1,0.1-0.1,0.2-0.2c1.5-3.1,3-6.2,4.5-9.4c0.1-0.3,0.1-0.5,0-0.7c-2.7-6-4-12.2-4-18.8c0-3.2-1.9-5.4-5-6 c-1.4-0.3-1.4-0.3-1.3-1.7c0,0,0,0,0-0.1c0-0.3,0.1-0.5,0.4-0.4c2,0.2,3.9,0.8,5.4,2.2c0.1,0.1,0.2,0.3,0.4,0.3v-0.1 c0-7.9,0-15.7,0-23.6c0-3.2-2.1-5.5-5.3-5.9c-1-0.2-1-0.2-1-1.2s0-1,1-0.9c0.1,0,0.1,0,0.2,0C10.8,23.4,12.4,24.2,13.9,25.6z M28.6,11c0-2.4,0-4.6,0-6.8c0-0.6-0.2-0.6-0.7-0.6c-3.8,0-7.5,0-11.3,0c-0.6,0-0.7,0.2-0.7,0.8c0,11.8,0,23.5,0,35.3 c0,0.2-0.1,0.4,0.1,0.6c1.5-1.4,3.3-2.2,5.3-2.4c0.9-0.1,0.9-0.1,0.9,0.8c0,1.1,0,1.1-1.1,1.3c-2.7,0.5-4.5,2-5,4.5 c-0.2,0.7-0.2,1.4-0.2,2.1c0,4.6,0,9.3,0,13.9c0,3.9,0.4,7.7,1.4,11.4c0.5,1.8,1.1,3.7,1.9,5.4c0.2-0.1,0.2-0.3,0.3-0.4 c2.9-6.1,5.9-12.2,8.8-18.2c0.1-0.3,0.2-0.6,0.2-0.9c0-13.7,0-27.4,0-41.1c0-3.3-2.2-5.7-5.5-6c-0.7-0.1-0.9-0.3-0.8-0.9 c0-0.1,0-0.2,0-0.3c0-1,0-1,1.1-0.9C25.3,8.7,27,9.5,28.6,11z M30.1,81.5c-0.1,0-0.3,0-0.5,0c-2.5,0.3-4.4,1.6-6.1,3.4 c-1.6,1.7-3.5,2.9-5.8,3.6c-0.3,0.1-0.4,0.2-0.6,0.5c-0.5,1.1-1,2.2-1.6,3.2c-0.1,0.3-0.1,0.5,0.1,0.7c1,1.2,2,2.3,3,3.4 c0.3,0.3,0.5,0.3,0.8,0.1c0.9-0.6,1.7-1.2,2.5-2c0.9-0.9,1.9-1.7,3-2.4c3.3-2,6.7-2.1,10-0.1c1.2,0.7,2.2,1.5,3.2,2.5 c0.8,0.9,1.8,1.6,2.8,2.2c2.5,1.5,5,1.5,7.6,0c1-0.6,2-1.4,2.8-2.2c0.7-0.8,1.6-1.5,2.4-2.1c2.6-1.7,5.3-2.4,8.3-1.4 c2.1,0.7,3.8,1.9,5.3,3.5c1.1,1.1,2.4,2.1,3.8,2.7c1.8,0.8,3.7,0.8,5.5,0c1.5-0.7,2.8-1.6,3.9-2.8c0.9-1,2-1.8,3.1-2.5 c2.8-1.7,5.7-2,8.7-0.6c1.6,0.7,3.1,1.8,4.3,3.1c0.5,0.5,1,1,1.6,1.4c0.2,0.2,0.4,0.2,0.5-0.1c0.8-0.9,1.6-1.9,2.4-2.8 c0.2-0.3,0.2-0.5,0.1-0.8c-0.7-1.3-1.3-2.6-1.9-3.9c-0.1-0.3-0.4-0.5-0.7-0.7c-1.4-0.7-2.5-1.7-3.6-2.8c-0.9-1-2-1.8-3.2-2.4 c-2.1-1.1-4.3-1.2-6.5-0.1c-1.3,0.6-2.4,1.5-3.4,2.5c-1,1.1-2.2,2-3.5,2.7c-1.9,1-3.8,1.6-6,1.2c-2.7-0.5-4.8-1.9-6.7-3.8 c-1-1-2.1-1.9-3.4-2.6c-1.2-0.6-2.5-0.9-3.9-0.8c-1.7,0.2-3.2,1-4.5,2.1c-1.3,1-2.4,2.3-3.7,3.3c-3.6,2.5-7.4,2.6-11.1,0.2 c-1-0.6-1.9-1.4-2.7-2.2c-0.8-0.8-1.7-1.6-2.7-2.1C32.9,82,31.6,81.5,30.1,81.5z M90,68.5c-1.3-2.7-2.6-5.4-3.9-8 c-0.2-0.3-0.3-0.2-0.6-0.1c-1.2,0.6-2.3,1.4-3.3,2.5c-0.7,0.8-1.6,1.5-2.4,2.1c-2.3,1.5-4.7,2.3-7.4,1.7c-2.5-0.5-4.5-1.9-6.3-3.7 c-1.1-1.1-2.3-2.1-3.8-2.7c-1.4-0.6-2.8-0.8-4.3-0.5c-2,0.5-3.7,1.7-5.1,3.1c-0.9,0.9-1.9,1.7-3,2.4c-2.1,1.3-4.3,1.9-6.8,1.4 s-4.5-1.9-6.3-3.7c-1.4-1.4-2.9-2.5-4.8-3.1c-0.4-0.1-0.6-0.1-0.9,0.4c-1.1,2.4-2.3,4.8-3.5,7.2c-0.3,0.5-0.5,1.1-0.8,1.6 c0.2,0,0.2,0,0.2,0c0.2-0.1,0.3-0.1,0.5-0.2c1.8-0.6,3.6-0.6,5.5,0c2,0.7,3.8,1.9,5.3,3.5c0.9,0.9,1.9,1.8,3.1,2.4 c1.4,0.7,2.8,1.2,4.3,0.9c2.4-0.4,4.2-1.7,5.8-3.3c0.8-0.8,1.7-1.5,2.6-2.2c2.5-1.6,5.1-2.3,8-1.4c2.1,0.7,3.9,1.9,5.4,3.5 c1.1,1.1,2.3,2.1,3.7,2.7c1.2,0.5,2.4,0.8,3.7,0.6c2.3-0.4,4.1-1.6,5.7-3.2C83.2,70,86.1,68.2,90,68.5z M43.2,11c0-2.4,0-4.5,0-6.7 c0-0.5-0.1-0.7-0.7-0.7c-3.8,0-7.5,0-11.3,0c-0.5,0-0.7,0.2-0.7,0.7c0,6.9,0,13.8,0,20.7c0,0.2-0.1,0.4,0.1,0.6 c1.4-1.4,3.1-2.1,5-2.4c1.1-0.2,1.1-0.2,1.1,1c0,0.9,0,0.9-0.9,1.1c-3.3,0.5-5.3,2.7-5.3,6.1c0,7.3,0,14.6,0,21.9 c0,0.1-0.1,0.3,0.1,0.5c0.1-0.1,0.1-0.1,0.1-0.2C34.9,45,39,36.6,43,28.2c0.1-0.2,0.2-0.5,0.2-0.7c0-3.7,0-7.5,0-11.2 c-0.1-3.2-2.2-5.4-5.4-5.8c-0.9-0.1-0.9-0.1-0.9-1c0-0.1,0-0.1,0-0.2c0-0.9,0-0.9,0.9-0.8C39.8,8.7,41.6,9.4,43.2,11z M45.3,23.4 c0.1-0.1,0.1-0.2,0.1-0.2c3.1-6.4,6.1-12.7,9.2-19c0.3-0.5,0-0.5-0.4-0.5c-2.8,0-5.6,0-8.4,0c-0.5,0-0.7,0.1-0.7,0.7 c0,6.2,0,12.3,0,18.5C45.3,22.9,45.2,23.1,45.3,23.4z"></path> <path class="st3" d="M117.2,0.1c-38.7,0-77.4,0-116,0c-1,0-1,0-1,0.9c0,19.1,0,38.2,0,57.4c0,0.3,0.1,0.6-0.1,0.8 c0-0.2,0-0.4,0-0.7c0-19.3,0-38.6,0-57.9C0,0.1,0.1,0,0.7,0C39.3,0,78,0,116.6,0C116.8,0,116.9,0,117.2,0.1 C117.2,0,117.2,0.1,117.2,0.1z"></path> <path class="st4" d="M112.8,3.5c0.2,0,0.3,0,0.5,0l0,0l0.1,0.1c0,0.2,0,0.4,0,0.7c0,18.1,0,36.2,0,54.3c0,11.1-3.1,21.2-9.2,30.4 c-0.1,0.1-0.2,0.3-0.3,0.4c0,0-0.1,0-0.2,0.1c-0.6-1.3-1.3-2.6-1.9-3.9C93,67.1,84,48.5,75,29.9C70.8,21.3,66.6,12.6,62.5,4 c-0.1-0.1-0.1-0.2-0.1-0.4l0.1-0.1c0.3,0,0.5,0,0.8,0c16.3,0,32.5,0,48.8,0C112.3,3.6,112.6,3.6,112.8,3.5z M82,19.3 c1,0,1.8-0.8,1.8-1.8s-0.9-1.8-1.9-1.8s-1.8,0.8-1.8,1.8C80.1,18.5,80.9,19.3,82,19.3z M108,19.3c1,0,1.8-0.8,1.8-1.8 s-0.8-1.8-1.8-1.9c-1,0-1.8,0.8-1.9,1.8C106.2,18.4,107,19.3,108,19.3z M81.9,10.9c1,0,1.8-0.8,1.8-1.8s-0.8-1.8-1.8-1.8 s-1.8,0.8-1.8,1.8S80.9,10.9,81.9,10.9z M108,10.9c1,0,1.8-0.8,1.8-1.8S109,7.3,108,7.3s-1.8,0.9-1.8,1.9 C106.2,10.1,107,10.9,108,10.9z M97.5,17.4c0,1,0.8,1.8,1.8,1.8s1.8-0.8,1.8-1.8s-0.8-1.8-1.8-1.9C98.4,15.6,97.5,16.4,97.5,17.4z M92.4,17.5c0-1-0.8-1.8-1.8-1.8s-1.9,0.8-1.9,1.8s0.8,1.8,1.8,1.8C91.7,19.3,92.4,18.5,92.4,17.5z M99.3,10.9c1,0,1.8-0.8,1.8-1.8 s-0.8-1.8-1.8-1.8s-1.8,0.8-1.8,1.8S98.3,10.9,99.3,10.9z M92.4,9.1c0-1-0.8-1.8-1.8-1.9c-1,0-1.8,0.8-1.9,1.8c0,1,0.8,1.8,1.8,1.8 C91.6,10.9,92.4,10.1,92.4,9.1z M73.3,10.9c1,0,1.8-0.8,1.8-1.8s-0.9-1.8-1.8-1.8c-1,0-1.8,0.8-1.8,1.8S72.2,10.9,73.3,10.9z M89.1,25.8c0,0.8,0.6,1.5,1.5,1.5c0.8,0,1.5-0.7,1.5-1.5s-0.6-1.5-1.5-1.5C89.8,24.3,89.2,25,89.1,25.8z M100.8,25.9 c0-0.8-0.6-1.5-1.5-1.5c-0.8,0-1.5,0.6-1.5,1.5c0,0.8,0.7,1.5,1.5,1.5C100.1,27.3,100.8,26.7,100.8,25.9z M106.5,34.2 c0,0.8,0.7,1.5,1.5,1.5s1.5-0.7,1.5-1.5s-0.7-1.5-1.5-1.4C107.1,32.7,106.5,33.4,106.5,34.2z M89.1,34.2c0,0.8,0.7,1.5,1.5,1.5 s1.5-0.7,1.5-1.5s-0.7-1.5-1.5-1.5C89.8,32.7,89.1,33.4,89.1,34.2z M100.8,34.2c0-0.8-0.6-1.5-1.5-1.5c-0.8,0-1.5,0.7-1.5,1.5 s0.7,1.5,1.5,1.5C100.2,35.7,100.8,35,100.8,34.2z M106.5,25.9c0,0.8,0.7,1.5,1.5,1.5s1.5-0.7,1.5-1.5s-0.7-1.5-1.5-1.4 C107.1,24.4,106.5,25,106.5,25.9z M108,41.1c-0.9,0-1.5,0.6-1.5,1.5s0.6,1.5,1.5,1.5c0.8,0,1.5-0.6,1.5-1.5 C109.5,41.8,108.9,41.1,108,41.1z M80.5,25.8c0,0.8,0.6,1.5,1.4,1.5s1.5-0.6,1.5-1.5s-0.6-1.5-1.5-1.5 C81.1,24.3,80.5,24.9,80.5,25.8z M100.8,42.6c0-0.8-0.6-1.5-1.5-1.5c-0.8,0-1.5,0.6-1.5,1.4c0,0.8,0.6,1.5,1.5,1.5 C100.2,44.1,100.8,43.4,100.8,42.6z M90.6,44c0.8,0,1.5-0.7,1.5-1.5S91.4,41,90.6,41s-1.5,0.6-1.5,1.5C89.1,43.4,89.8,44,90.6,44z M109.3,59.3c0-0.7-0.6-1.3-1.3-1.3c-0.7,0-1.2,0.6-1.3,1.2c0,0.7,0.5,1.3,1.2,1.3C108.7,60.6,109.3,60,109.3,59.3z M109.3,50.9 c0-0.7-0.6-1.2-1.3-1.2c-0.7,0-1.3,0.6-1.3,1.3s0.6,1.2,1.3,1.2C108.7,52.2,109.3,51.6,109.3,50.9z M100.6,59.3 c0-0.7-0.5-1.2-1.2-1.2s-1.3,0.6-1.3,1.3s0.6,1.2,1.2,1.3C100,60.6,100.6,60,100.6,59.3z M108,68.9c0.7,0,1.3-0.6,1.3-1.3 c0-0.7-0.6-1.2-1.3-1.2c-0.7,0-1.3,0.6-1.3,1.3C106.8,68.4,107.3,68.9,108,68.9z M100.6,50.9c0-0.7-0.6-1.3-1.3-1.3 c-0.7,0-1.2,0.6-1.2,1.3s0.6,1.3,1.2,1.3C100,52.2,100.6,51.7,100.6,50.9z"></path> <path class="st0" d="M58.6,3.6c0.5,1,0.9,1.9,1.4,2.9c8.3,17.1,16.5,34.2,24.8,51.3c0.2,0.4,0.2,0.6-0.3,0.9 c-1.5,0.7-2.7,1.7-3.9,2.9c-0.8,0.9-1.8,1.6-2.9,2.2c-2.5,1.4-4.9,1.4-7.4-0.1c-1.1-0.6-2-1.4-2.9-2.3c-1-1.1-2.2-2-3.5-2.7 c-3.1-1.7-6.2-1.7-9.3,0.1c-1.3,0.7-2.4,1.6-3.4,2.7c-1,1.1-2.2,2-3.6,2.6c-1.9,0.9-3.8,0.9-5.8,0c-1.4-0.6-2.6-1.5-3.7-2.6 c-1.6-1.6-3.4-2.9-5.5-3.6c-0.5-0.2-0.3-0.4-0.2-0.7c2.9-6,5.8-12,8.7-18.1c5.9-11.6,11.6-23.3,17.2-35C58.4,4,58.5,3.8,58.6,3.6z"></path> <path class="st1" d="M58.5,113.5c-14.3-0.2-26.7-5-37.3-14.7c-0.4-0.4-0.5-0.6,0.1-0.9c0.9-0.6,1.7-1.3,2.5-2.1 c1.6-1.6,3.4-2.8,5.7-3.2c1.3-0.2,2.5,0.1,3.7,0.7c1.4,0.6,2.6,1.6,3.7,2.7c1.9,1.9,4.1,3.4,6.8,3.8c2,0.3,3.8-0.1,5.5-1 c1.4-0.7,2.7-1.8,3.8-2.9c1.6-1.6,3.4-2.9,5.7-3.2c1.8-0.3,3.4,0.4,4.9,1.3c1,0.6,1.8,1.3,2.6,2.2c1.5,1.5,3.2,2.7,5.3,3.4 c3.1,1,5.8,0.2,8.4-1.6c1.2-0.8,2.1-1.8,3.1-2.8c0.8-0.7,1.6-1.3,2.5-1.7c2.2-1.1,4.3-1.1,6.5,0c1.2,0.6,2.3,1.4,3.2,2.4 c0.5,0.5,1,1,1.5,1.4c0.4,0.3,0.4,0.4,0,0.8c-2.9,2.8-6.1,5.3-9.5,7.4c-6.4,3.9-13.3,6.4-20.7,7.5C64,113.3,61.2,113.5,58.5,113.5z "></path> <path class="st5" d="M13.9,25.6c-1.5-1.5-3.2-2.2-5.1-2.5c-0.1,0-0.1,0-0.2,0c-1-0.1-1-0.1-1,0.9s0,1,1,1.2 c3.2,0.5,5.2,2.7,5.3,5.9c0,7.9,0,15.7,0,23.6v0.1c-0.2,0-0.3-0.2-0.4-0.3c-1.6-1.3-3.4-2-5.4-2.2c-0.4,0-0.5,0.1-0.4,0.4 c0,0,0,0,0,0.1c0,1.4,0,1.4,1.3,1.7c3.1,0.6,5,2.8,5,6c0,6.6,1.3,12.8,4,18.8c0.1,0.3,0.1,0.5,0,0.7c-1.5,3.1-3,6.2-4.5,9.4 c0,0.1-0.1,0.1-0.2,0.2c-0.9-1.2-1.6-2.4-2.3-3.6c-3.7-6.4-6-13.4-6.9-20.8c-0.3-2.3-0.4-4.6-0.4-6.9c0-18,0-36,0-54 c0-0.6,0.1-0.9,0.8-0.8c3,0,5.9,0,8.9,0C13.8,3.6,14,3.6,14,4.1c0,7,0,14.1,0,21.1C13.9,25.3,13.9,25.4,13.9,25.6z"></path> <path class="st4" d="M28.6,11c-1.6-1.5-3.3-2.2-5.2-2.5c-1.1-0.2-1.1-0.2-1.1,0.9c0,0.1,0,0.2,0,0.3c-0.1,0.6,0.1,0.8,0.8,0.9 c3.3,0.3,5.5,2.7,5.5,6c0,13.7,0,27.4,0,41.1c0,0.3-0.1,0.6-0.2,0.9c-2.9,6.1-5.9,12.2-8.8,18.2c-0.1,0.1-0.1,0.3-0.3,0.4 c-0.8-1.8-1.4-3.6-1.9-5.4c-1-3.7-1.4-7.5-1.4-11.4c0-4.6,0-9.3,0-13.9c0-0.7,0-1.4,0.2-2.1c0.5-2.4,2.3-4,5-4.5 c1.1-0.2,1.1-0.2,1.1-1.3c0-0.9,0-0.9-0.9-0.8c-2,0.2-3.8,1-5.3,2.4C15.9,40,16,39.8,16,39.6c0-11.8,0-23.5,0-35.3 c0-0.5,0.1-0.8,0.7-0.8c3.8,0,7.5,0,11.3,0c0.5,0,0.7,0.1,0.7,0.6C28.5,6.4,28.6,8.6,28.6,11z"></path> <path class="st1" d="M30.1,81.5c1.5,0,2.7,0.5,3.9,1.2c1,0.6,1.9,1.3,2.7,2.1c0.8,0.8,1.7,1.6,2.7,2.2c3.7,2.4,7.5,2.3,11.1-0.2 c1.4-0.9,2.4-2.3,3.7-3.3s2.8-1.8,4.5-2.1c1.4-0.2,2.6,0.2,3.9,0.8c1.3,0.6,2.4,1.5,3.4,2.6c1.9,1.9,4,3.4,6.7,3.8 c2.1,0.4,4.1-0.2,6-1.2c1.3-0.7,2.5-1.7,3.5-2.7s2.1-1.8,3.4-2.5c2.2-1.1,4.3-1,6.5,0.1c1.2,0.6,2.3,1.4,3.2,2.4 c1.1,1.1,2.3,2.1,3.6,2.8c0.3,0.2,0.5,0.4,0.7,0.7c0.6,1.3,1.3,2.6,1.9,3.9c0.1,0.3,0.1,0.5-0.1,0.8c-0.8,0.9-1.6,1.9-2.4,2.8 c-0.2,0.2-0.3,0.2-0.5,0.1c-0.5-0.4-1.1-0.9-1.6-1.4c-1.2-1.3-2.7-2.4-4.3-3.1c-3-1.4-5.9-1-8.7,0.6c-1.1,0.7-2.2,1.5-3.1,2.5 c-1.1,1.2-2.4,2.1-3.9,2.8c-1.8,0.8-3.7,0.8-5.5,0c-1.5-0.7-2.7-1.6-3.8-2.7c-1.5-1.6-3.2-2.8-5.3-3.5c-3-1-5.8-0.3-8.3,1.4 c-0.9,0.6-1.7,1.3-2.4,2.1c-0.8,0.9-1.8,1.6-2.8,2.2c-2.5,1.5-5,1.5-7.6,0c-1-0.6-2-1.3-2.8-2.2c-0.9-1-2-1.8-3.2-2.5 c-3.4-2-6.7-1.9-10,0.1c-1.1,0.7-2.1,1.5-3,2.4c-0.7,0.8-1.6,1.4-2.5,2c-0.3,0.2-0.5,0.2-0.8-0.1c-1-1.1-2-2.3-3-3.4 c-0.2-0.3-0.2-0.5-0.1-0.7c0.5-1.1,1.1-2.2,1.6-3.2c0.1-0.3,0.3-0.4,0.6-0.5c2.3-0.7,4.1-1.9,5.8-3.6s3.6-3,6.1-3.4 C29.8,81.5,30,81.5,30.1,81.5z"></path> <path class="st1" d="M97.2,83.8c-0.8-0.7-1.6-1.5-2.5-2.1c-4.1-2.9-8.1-2.8-12.1,0.2c-0.9,0.7-1.7,1.5-2.5,2.3 c-0.6,0.6-1.4,1.1-2.1,1.6c-2.6,1.6-5.2,1.5-7.7,0c-1-0.6-1.9-1.4-2.8-2.3c-1.9-1.9-4-3.3-6.7-3.8c-1.8-0.3-3.4,0-5,0.8 s-3.1,1.8-4.3,3.1c-1.7,1.7-3.5,3-5.9,3.3c-1.3,0.2-2.4-0.2-3.5-0.7c-1.4-0.6-2.6-1.6-3.7-2.7c-1.9-1.9-4-3.3-6.7-3.8 c-1.8-0.3-3.4,0-5,0.8c-1.6,0.7-3,1.8-4.3,3.1c-1,1-2,1.8-3.3,2.5c-0.2-0.1,0-0.2,0-0.3c2-4.2,4.1-8.4,6.1-12.7 c0.2-0.3,0.4-0.6,0.7-0.8c3-2,5.8-2,8.8,0c0.8,0.5,1.5,1.1,2.2,1.8c1.9,1.9,4,3.3,6.6,3.8c2,0.4,3.8,0,5.6-0.9 c1.5-0.7,2.8-1.7,3.9-2.9c1-1,2.1-1.9,3.4-2.5c2.2-1.2,4.4-1.1,6.6,0.1c1.2,0.6,2.2,1.4,3.1,2.4c1,1,2.1,1.9,3.3,2.6 c3.3,1.9,6.5,1.9,9.8-0.1c1.1-0.7,2.2-1.5,3.1-2.5c1.5-1.5,3.1-2.7,5.2-3.2c1.1-0.3,2.2-0.2,3.3,0.2c0.2,0.1,0.4,0.2,0.5,0.4 C93.3,75.6,95.2,79.7,97.2,83.8C97.3,83.6,97.3,83.6,97.2,83.8C97.3,83.7,97.2,83.7,97.2,83.8z"></path> <path class="st1" d="M90,68.5c-3.9-0.3-6.8,1.4-9.3,4c-1.6,1.6-3.4,2.9-5.7,3.2c-1.3,0.2-2.6-0.1-3.7-0.6c-1.4-0.6-2.6-1.6-3.7-2.7 c-1.5-1.6-3.3-2.8-5.4-3.5c-2.9-0.9-5.5-0.2-8,1.4c-1,0.6-1.8,1.4-2.6,2.2c-1.6,1.6-3.5,2.9-5.8,3.3c-1.6,0.3-3-0.2-4.3-0.9 c-1.2-0.6-2.2-1.4-3.1-2.4c-1.5-1.5-3.2-2.7-5.3-3.5c-1.8-0.6-3.6-0.6-5.5,0c-0.2,0.1-0.3,0.1-0.5,0.2c0,0,0,0-0.1-0.1 c0.3-0.5,0.5-1.1,0.8-1.6c1.2-2.4,2.3-4.8,3.5-7.2c0.2-0.4,0.4-0.5,0.9-0.4c1.9,0.6,3.4,1.7,4.8,3.1c1.8,1.8,3.8,3.2,6.3,3.7 s4.7-0.1,6.8-1.4c1.1-0.7,2.1-1.5,3-2.4c1.4-1.5,3.1-2.6,5.1-3.1c1.5-0.4,2.9-0.2,4.3,0.5c1.4,0.7,2.7,1.6,3.8,2.7 c1.8,1.8,3.8,3.2,6.3,3.7c2.7,0.6,5.2-0.2,7.4-1.7c0.9-0.6,1.7-1.3,2.4-2.1c1-1,2.1-1.8,3.3-2.5c0.2-0.1,0.4-0.2,0.6,0.1 C87.4,63.1,88.7,65.8,90,68.5z"></path> <path class="st4" d="M43.2,11c-1.6-1.5-3.4-2.3-5.4-2.5c-0.9-0.1-0.9-0.1-0.9,0.8c0,0.1,0,0.1,0,0.2c0,0.9,0,0.9,0.9,1 c3.2,0.4,5.3,2.6,5.4,5.8c0.1,3.7,0,7.5,0,11.2c0,0.3-0.1,0.5-0.2,0.7c-4.1,8.4-8.1,16.8-12.2,25.2c0,0.1-0.1,0.1-0.1,0.2 c-0.2-0.1-0.1-0.3-0.1-0.5c0-7.3,0-14.6,0-21.9c0-3.4,2-5.7,5.3-6.1c0.9-0.1,0.9-0.1,0.9-1.1c0-1.2,0-1.2-1.1-1 c-1.9,0.3-3.6,1-5,2.4c-0.2-0.2-0.1-0.4-0.1-0.6c0-6.9,0-13.8,0-20.7c0-0.5,0.1-0.7,0.7-0.7c3.8,0,7.5,0,11.3,0 c0.6,0,0.7,0.2,0.7,0.7C43.2,6.4,43.2,8.6,43.2,11z"></path> <path class="st5" d="M45.3,23.4c-0.2-0.2-0.1-0.4-0.1-0.6c0-6.2,0-12.3,0-18.5c0-0.5,0.1-0.7,0.7-0.7c2.8,0,5.6,0,8.4,0 c0.4,0,0.7,0,0.4,0.5c-3.1,6.3-6.1,12.7-9.2,19C45.4,23.2,45.4,23.3,45.3,23.4z"></path> <path class="st6" d="M112.8,3.5c-0.3,0-0.6,0-0.8,0c-16.3,0-32.5,0-48.8,0c-0.3,0-0.5,0-0.8,0h-0.1c0.2-0.2,0.4-0.1,0.7-0.1 c16.4,0,32.8,0,49.2,0C112.4,3.4,112.7,3.3,112.8,3.5z"></path> <path class="st1" d="M97.3,83.7c0.1,0,0.1,0.1,0.1,0.2C97.3,83.9,97.2,83.8,97.3,83.7C97.2,83.7,97.3,83.7,97.3,83.7z"></path> <path class="st6" d="M113.4,3.5C113.4,3.4,113.5,3.4,113.4,3.5C113.4,3.6,113.4,3.6,113.4,3.5L113.4,3.5z"></path> <path class="st7" d="M62.3,3.5L62.3,3.5L62.3,3.5C62.3,3.6,62.3,3.6,62.3,3.5z"></path> <path class="st7" d="M113.4,3.6L113.4,3.6L113.4,3.6C113.4,3.6,113.4,3.6,113.4,3.6z"></path> <path class="st8" d="M82,19.3c-1,0-1.8-0.8-1.8-1.8s0.8-1.8,1.8-1.8s1.8,0.8,1.9,1.8C83.8,18.5,83,19.3,82,19.3z"></path> <path class="st8" d="M108,19.3c-1,0-1.8-0.8-1.8-1.8s0.9-1.8,1.9-1.8s1.8,0.8,1.8,1.9C109.8,18.5,109,19.3,108,19.3z"></path> <path class="st8" d="M81.9,10.9c-1,0-1.8-0.8-1.8-1.8s0.8-1.8,1.8-1.8s1.8,0.8,1.8,1.8C83.8,10.1,83,10.9,81.9,10.9z"></path> <path class="st2" d="M108,10.9c-1,0-1.8-0.8-1.9-1.8c0-1,0.8-1.8,1.8-1.9c1,0,1.8,0.8,1.8,1.8C109.8,10.1,109.1,10.9,108,10.9z"></path> <path class="st8" d="M97.5,17.4c0-1,0.8-1.8,1.8-1.8s1.8,0.8,1.8,1.9c0,1-0.8,1.8-1.8,1.8C98.3,19.3,97.5,18.5,97.5,17.4z"></path> <path class="st8" d="M92.4,17.5c0,1-0.8,1.8-1.8,1.8s-1.8-0.8-1.8-1.8s0.9-1.8,1.9-1.8C91.6,15.6,92.4,16.5,92.4,17.5z"></path> <path class="st2" d="M99.3,10.9c-1,0-1.8-0.8-1.8-1.8s0.8-1.8,1.8-1.8s1.8,0.8,1.8,1.8C101.1,10.1,100.3,10.9,99.3,10.9z"></path> <path class="st2" d="M92.4,9.1c0,1-0.8,1.8-1.8,1.8s-1.8-0.8-1.8-1.8s0.9-1.8,1.9-1.8S92.4,8.1,92.4,9.1z"></path> <path class="st2" d="M73.3,10.9c-1,0-1.8-0.7-1.8-1.8c0-1,0.8-1.8,1.8-1.8s1.8,0.8,1.8,1.8C75.1,10.1,74.3,10.9,73.3,10.9z"></path> <path class="st8" d="M89.1,25.8c0-0.8,0.7-1.5,1.5-1.5s1.5,0.7,1.5,1.5s-0.7,1.5-1.5,1.5C89.8,27.3,89.1,26.6,89.1,25.8z"></path> <path class="st8" d="M100.8,25.9c0,0.8-0.7,1.5-1.5,1.5s-1.5-0.7-1.5-1.5s0.7-1.5,1.5-1.5C100.2,24.4,100.8,25,100.8,25.9z"></path> <path class="st8" d="M106.5,34.2c0-0.9,0.6-1.5,1.4-1.5s1.5,0.6,1.5,1.4c0,0.8-0.6,1.5-1.5,1.5C107.2,35.7,106.6,35.1,106.5,34.2z"></path> <path class="st8" d="M89.1,34.2c0-0.8,0.6-1.5,1.5-1.5c0.8,0,1.5,0.6,1.5,1.5c0,0.8-0.7,1.5-1.5,1.5C89.8,35.7,89.2,35,89.1,34.2z"></path> <path class="st8" d="M100.8,34.2c0,0.8-0.7,1.5-1.5,1.5s-1.5-0.7-1.5-1.5s0.7-1.5,1.5-1.5C100.2,32.7,100.8,33.4,100.8,34.2z"></path> <path class="st8" d="M106.5,25.9c0-0.9,0.6-1.5,1.4-1.5s1.5,0.6,1.5,1.4s-0.7,1.5-1.5,1.5C107.2,27.4,106.6,26.7,106.5,25.9z"></path> <path class="st2" d="M108,41.1c0.8,0,1.5,0.7,1.5,1.5s-0.7,1.5-1.5,1.5c-0.9,0-1.5-0.6-1.5-1.5S107.2,41.1,108,41.1z"></path> <path class="st8" d="M80.5,25.8c0-0.9,0.6-1.5,1.5-1.5s1.5,0.6,1.5,1.5c0,0.8-0.7,1.5-1.5,1.5C81.1,27.3,80.5,26.6,80.5,25.8z"></path> <path class="st8" d="M100.8,42.6c0,0.8-0.7,1.5-1.5,1.5s-1.5-0.7-1.5-1.5s0.7-1.5,1.5-1.4C100.2,41.1,100.8,41.7,100.8,42.6z"></path> <path class="st8" d="M90.6,44c-0.8,0-1.5-0.6-1.5-1.5c0-0.8,0.6-1.5,1.5-1.5c0.8,0,1.5,0.6,1.5,1.5C92.1,43.4,91.5,44,90.6,44z"></path> <path class="st8" d="M109.3,59.3c0,0.7-0.6,1.3-1.3,1.2c-0.7,0-1.2-0.6-1.2-1.3s0.6-1.2,1.3-1.2C108.7,58,109.3,58.6,109.3,59.3z"></path> <path class="st8" d="M109.3,50.9c0,0.7-0.6,1.3-1.3,1.3c-0.7,0-1.2-0.6-1.3-1.2c0-0.7,0.6-1.3,1.3-1.3 C108.7,49.7,109.3,50.2,109.3,50.9z"></path> <path class="st8" d="M100.6,59.3c0,0.7-0.5,1.3-1.3,1.3c-0.7,0-1.2-0.6-1.2-1.3s0.6-1.3,1.3-1.3C100,58,100.6,58.6,100.6,59.3z"></path> <path class="st8" d="M108,68.9c-0.7,0-1.2-0.5-1.2-1.2s0.6-1.3,1.3-1.3c0.7,0,1.2,0.6,1.3,1.2C109.3,68.4,108.7,68.9,108,68.9z"></path> <path class="st8" d="M100.6,50.9c0,0.7-0.6,1.3-1.3,1.3c-0.7,0-1.2-0.6-1.2-1.3s0.6-1.2,1.2-1.3C100,49.6,100.6,50.2,100.6,50.9z"></path> <path class="st0" d="M265.8,107.4c0-3.4,0-6.8,0-10.3c0.7,0,1.3,0,2.1,0c0,4.6,0,9.2,0,13.8c-1.2,0-1.7,0-2.6,0 c-0.2,0-5.8-10.7-6-11.1c0,1.2,0,2.2,0,3.1s0,1.8,0,2.7c0,0.9,0,1.7,0,2.6s0,1.7,0,2.7c-0.7,0-1.4,0-2.1,0c0-1,0-12.6,0-13.8 c0.7,0,2.2,0,3.1,0C260.5,97.7,265.7,107.4,265.8,107.4z"></path> <path class="st0" d="M155.4,110.9c1.5-4.7,2.9-9.2,4.3-13.8c1.2,0,2.3,0,3.6,0c1.4,4.5,2.8,9.1,4.3,13.8c-0.9,0-1.6,0-2.4,0 c-0.4-1.1-0.7-2.3-1.1-3.6c-1.6,0-3.5,0-5.1,0c0,0-0.1,0.4-0.2,0.6c-0.2,0.7-0.4,1.4-0.6,2.1c-0.3,0.9-0.3,0.8-0.3,0.8 C157.3,110.9,156,110.9,155.4,110.9z M159.5,105.4c1.4,0,2.6,0,3.8,0c-0.5-2-1.5-5-1.9-6.4C160.7,101.1,160.1,103.1,159.5,105.4z"></path> <path class="st0" d="M192.3,110.9c1.5-4.7,2.9-9.2,4.3-13.8c1.2,0,2.3,0,3.6,0c1.4,4.5,2.8,9.1,4.3,13.8c-0.9,0-1.6,0-2.4,0 c-0.4-1.1-0.7-2.3-1.1-3.6c-1.6,0-3.5,0-5.1,0c0,0-0.1,0.4-0.2,0.6c-0.2,0.7-0.4,1.4-0.6,2.1c-0.3,0.9-0.3,0.8-0.3,0.8 C194.3,110.9,192.9,110.9,192.3,110.9z M196.4,105.4c1.4,0,2.6,0,3.8,0c-0.5-2-1.5-5-1.9-6.4C197.6,101.1,197,103.1,196.4,105.4z"></path> <path class="st0" d="M292.5,110.9c1.5-4.7,2.9-9.2,4.3-13.8c1.2,0,2.3,0,3.6,0c1.4,4.5,2.8,9.1,4.3,13.8c-0.9,0-1.6,0-2.4,0 c-0.4-1.1-0.7-2.3-1.1-3.6c-1.6,0-3.5,0-5.1,0c0,0-0.1,0.4-0.2,0.6c-0.2,0.7-0.4,1.4-0.6,2.1c-0.3,0.9-0.3,0.8-0.3,0.8 C294.5,110.9,293.1,110.9,292.5,110.9z M296.6,105.4c1.4,0,2.6,0,3.8,0c-0.5-2-1.5-5-1.9-6.4C297.8,101.1,297.2,103.1,296.6,105.4z "></path> <path class="st0" d="M224.2,98.3c-0.4,0.5-0.9,1-1.4,1.5c-0.3-0.2-0.6-0.3-0.8-0.5c-2.4-1.3-4.9-0.1-5.6,2.5 c-0.3,1.4-0.3,2.9,0,4.3c0.6,2.7,2.8,3.8,5.5,2.6c0-0.7,0-1.6,0-2.4s0-1.6,0-2.4c0.8,0,1.5,0,2.3,0c0,0.4,0,0.7,0,1 c0,1.5,0,3.6,0,5c0,0-0.1,0.1-0.6,0.4c-2.2,0.9-4.4,1.1-6.6,0.3c-1.5-0.5-2.3-1.7-2.7-3.2c-0.6-1.9-0.7-3.9-0.2-5.8 c0.8-3.5,3.6-5.4,7.2-4.8C222.8,97.1,223.4,97.4,224.2,98.3z"></path> <path class="st0" d="M140.8,105.7c0,1.9,0,3.5,0,5.2c-0.8,0-1.5,0-2.3,0c0-4.6,0-9.2,0-13.8c0.3,0,0.6,0,0.9,0c1.3,0,2.5,0,3.8,0 c0.6,0,1.2,0.1,1.7,0.2c1.6,0.4,2.5,1.5,2.7,3.2c0,0.3,0,0.5,0,0.8c-0.1,2.5-1.5,4.1-4,4.3C142.7,105.7,141.8,105.7,140.8,105.7z M140.8,99c0,1.9,0,3.7,0,4.7c0.8,0,1.9,0,2.7-0.1c1.1-0.2,1.6-1,1.6-2.3c0-1.2-0.5-2-1.7-2.2C142.6,99,141.7,99,140.8,99z"></path> <path class="st0" d="M181.1,110.9c-0.9,0-1.5,0-2.4,0c-0.1-1.3,0-2.6,0-3.9s0-2.7,0-4s0-2.6,0-4.1c-1.2,0-2.3,0-3.5,0 c0-0.7,0-1.3,0-1.9c3.1,0,6.2,0,9.4,0c0,0.6,0,1.2,0,1.9c-1.3,0-2.2,0-3.5,0C181.1,103,181.1,106.9,181.1,110.9z"></path> <path class="st0" d="M282,110.9c-0.7,0-1.4,0-2.2,0c0-4.6,0-9.1,0-13.8c0.7,0,1.4,0,2.2,0C282,101.7,282,106.3,282,110.9z"></path> <path class="st0" d="M245.4,100c-0.3-0.9-0.9-1.7-1.6-2.2c-1-0.7-2.1-1-3.3-1c-1.1,0-2.3,0.3-3.3,1c-0.8,0.6-1.3,1.3-1.6,2.2 c-0.9,2.6-0.9,5.2,0,7.8c0.7,2.1,2.3,3.2,4.5,3.3c0.1,0,0.2,0,0.3,0l0,0l0,0l0,0l0,0c0.1,0,0.2,0,0.3,0c2.2-0.1,3.8-1.2,4.5-3.3 C246.3,105.2,246.3,102.6,245.4,100z M243,107.4c-0.4,1.2-1.3,1.8-2.5,1.8c0,0,0,0-0.1,0c0,0,0,0-0.1,0c-1.2,0-2.1-0.7-2.5-1.8 c-0.7-2.2-0.7-4.5,0-6.7c0.4-1.2,1.3-1.8,2.5-1.9c1.2,0.1,2.1,0.7,2.5,1.9C243.8,102.9,243.8,105.2,243,107.4z"></path> <path class="st0" d="M302.6,88.1h-79.7c-0.7,0-1.3-0.6-1.3-1.3l0,0c0-0.7,0.6-1.3,1.3-1.3h79.7c0.7,0,1.3,0.6,1.3,1.3l0,0 C303.9,87.5,303.3,88.1,302.6,88.1z"></path> <path class="st0" d="M197.7,88.1h-57.2c-0.7,0-1.3-0.6-1.3-1.3l0,0c0-0.7,0.6-1.3,1.3-1.3h57.2c0.7,0,1.3,0.6,1.3,1.3l0,0 C199,87.5,198.4,88.1,197.7,88.1z"></path> </g> </svg> 