<?xml version="1.0" encoding="UTF-8" standalone="no"?>
<!-- Created with Inkscape (http://www.inkscape.org/) -->

<svg
   xmlns:dc="http://purl.org/dc/elements/1.1/"
   xmlns:cc="http://creativecommons.org/ns#"
   xmlns:rdf="http://www.w3.org/1999/02/22-rdf-syntax-ns#"
   xmlns:svg="http://www.w3.org/2000/svg"
   xmlns="http://www.w3.org/2000/svg"
   version="1.1"
   width="400"
   height="400"
   id="svg2">
  <metadata
     id="metadata8">
    <rdf:RDF>
      <cc:Work
         rdf:about="">
        <dc:format>image/svg+xml</dc:format>
        <dc:type
           rdf:resource="http://purl.org/dc/dcmitype/StillImage" />
        <dc:title></dc:title>
      </cc:Work>
    </rdf:RDF>
  </metadata>
  <defs
     id="defs6" />
  <g
     transform="matrix(1.3033855,0,0,1.3033855,-1718.7501,-169.28256)"
     id="g3791">
    <rect
       width="306.8931"
       height="306.8931"
       x="1318.6813"
       y="129.87912"
       id="rect3785"
       style="fill:#375caa;fill-opacity:1;fill-rule:evenodd;stroke:none" />
    <g
       transform="translate(-0.57527712,3.8569183)"
       id="g3787">
      <path
         d="m 1357.2812,157.75 0,76.46875 11.5313,0 0,114.125 52.5937,52.84375 51.1563,0 0.2813,0 51.1562,0 52.5938,-52.84375 0,-114.125 11.5312,0 0,-76.46875 -99.5312,0 0,76.46875 11.5312,0 0,76.03125 -12.1875,12.21875 -15.0937,0 -0.2813,0 -15.0937,0 -12.1876,-12.21875 0,-76.03125 11.5313,0 0,-76.46875 -99.5313,0 z m 13.7813,12.25 73.625,0 0.25,52.53125 -10.1563,0 0,92.5625 19.4063,20.53125 18.375,0.21875 0.2813,0 18.375,-0.21875 19.4062,-20.53125 0,-92.5625 -10.1562,0 0.25,-52.53125 73.625,0 0,52.53125 -10.1563,0 0,118.46875 -46.3125,49.46875 -45.0312,0 -0.2813,0 -45.0313,0 L 1381.2188,341 l 0,-118.46875 -10.1563,0 0,-52.53125 z"
         id="rect2987"
         style="fill:#ffffff;fill-opacity:1;stroke:none" />
      <path
         d="m 1371.0625,170 73.625,0 0.25,52.53125 -10.1563,0 0,92.5625 19.4063,20.53125 18.375,0.21875 0.2813,0 18.375,-0.21875 19.4062,-20.53125 0,-92.5625 -10.1562,0 0.25,-52.53125 73.625,0 0,52.53125 -10.1563,0 0,118.46875 -46.3125,49.46875 -45.0312,0 -0.2813,0 -45.0313,0 L 1381.2188,341 l 0,-118.46875 -10.1563,0 z"
         id="path3781"
         style="fill:#ee2e24;fill-opacity:1;stroke:none" />
    </g>
  </g>
</svg>
