<?xml version='1.0' encoding='UTF-8'?>
<svg xmlns="http://www.w3.org/2000/svg" id="Layer_2" viewBox="-1 53 150 57"><defs><style>.cls-1,.cls-2{fill:#0075c9;}.cls-2{fill-rule:evenodd;}</style></defs><g id="Layer_1-2"><path class="cls-1" d="m9.8,81.04c0,1.42-.16,2.55-.48,3.37-.32.82-.82,1.42-1.51,1.8-.69.38-1.65.56-2.89.56s-2.2-.19-2.91-.57-1.22-.99-1.54-1.82C.16,83.55,0,82.44,0,81.04v-7.59h1.74v7.4c0,1.14.1,2.02.31,2.64.21.62.53,1.06.98,1.33.45.27,1.07.4,1.86.4s1.42-.13,1.87-.4c.45-.27.78-.69.98-1.28.2-.58.31-1.47.31-2.66v-7.44h1.74v7.59Z" /><path class="cls-1" d="m19.31,86.48v-5.82c0-.94-.05-1.57-.14-1.88-.09-.31-.25-.54-.46-.68s-.52-.21-.93-.21-.9.16-1.45.47c-.55.31-1.09.7-1.6,1.15v6.97h-1.62v-9.87h1.62v1.47c.46-.46.99-.86,1.6-1.22.61-.35,1.22-.53,1.84-.53.95,0,1.65.27,2.1.81.45.54.67,1.46.67,2.75v6.59h-1.62Z" /><path class="cls-1" d="m25.93,74.1c0,.38-.08.63-.25.77-.17.14-.44.2-.81.2-.4,0-.67-.08-.82-.25-.15-.17-.23-.41-.23-.72,0-.33.08-.58.24-.73.16-.15.43-.23.8-.23s.66.07.82.22c.16.15.24.39.24.74Zm-1.87,12.38v-9.87h1.62v9.87h-1.62Z" /><path class="cls-1" d="m32.81,86.48h-1.6l-3.45-9.87h1.74l2.56,7.76,2.54-7.76h1.68l-3.46,9.87Z" /><path class="cls-1" d="m39.35,81.74c0,1.31.22,2.24.67,2.79.45.56,1.16.83,2.15.83.44,0,.83-.09,1.16-.28.33-.18.65-.48.96-.9l1.34.83c-.38.56-.83,1-1.37,1.3s-1.27.46-2.19.46c-1.47,0-2.56-.43-3.29-1.28-.72-.85-1.09-2.14-1.09-3.87s.35-3.14,1.06-4.01c.71-.86,1.77-1.29,3.2-1.29,1.28,0,2.24.37,2.88,1.11.64.74.96,1.87.96,3.4v.9h-6.42Zm4.84-1.27c-.01-.88-.2-1.57-.56-2.06-.36-.49-.95-.73-1.76-.73s-1.35.22-1.74.66c-.39.44-.64,1.15-.77,2.13h4.82Z" /><path class="cls-1" d="m53.69,78.21c-.18-.08-.43-.11-.75-.11-.48,0-.95.11-1.4.33-.45.22-.97.63-1.57,1.23v6.82h-1.62v-9.87h1.62v1.6c.45-.46.93-.86,1.43-1.22.5-.35,1.05-.53,1.66-.53.41,0,.73.07.98.2l-.35,1.55Z" /><path class="cls-1" d="m62.35,83.82c0,.92-.33,1.65-.98,2.17s-1.58.79-2.79.79c-.82,0-1.56-.16-2.21-.47-.65-.31-1.13-.75-1.43-1.31l1.3-.79c.5.8,1.29,1.2,2.39,1.2.72,0,1.25-.14,1.6-.41.35-.27.53-.64.53-1.11,0-.28-.06-.5-.19-.67-.13-.17-.32-.32-.58-.45-.26-.13-.8-.3-1.62-.52-1.17-.27-2-.64-2.48-1.12-.48-.48-.72-1.11-.72-1.9,0-.87.31-1.57.94-2.1.63-.53,1.5-.79,2.61-.79.86,0,1.58.17,2.16.51.58.34,1.01.75,1.28,1.22l-1.29.79c-.51-.77-1.25-1.16-2.19-1.16-.54,0-1,.12-1.37.36-.37.24-.56.61-.56,1.11,0,.45.16.77.49.97.33.2.84.39,1.53.56,1.12.29,1.89.56,2.32.81.43.25.74.56.95.93.2.37.31.83.31,1.4Z" /><path class="cls-1" d="m66.8,74.1c0,.38-.08.63-.25.77-.17.14-.44.2-.81.2-.4,0-.67-.08-.82-.25-.15-.17-.23-.41-.23-.72,0-.33.08-.58.24-.73.16-.15.43-.23.8-.23s.66.07.82.22c.16.15.24.39.24.74Zm-1.87,12.38v-9.87h1.62v9.87h-1.62Z" /><path class="cls-1" d="m75.97,86.48v-.98c-.37.36-.82.66-1.34.9-.52.24-1.08.37-1.67.37-1.19,0-2.1-.45-2.75-1.34-.65-.89-.97-2.16-.97-3.81s.35-2.9,1.05-3.86c.7-.96,1.68-1.44,2.92-1.44,1,0,1.91.36,2.75,1.09v-4.95h1.63v14.02h-1.63Zm0-7.65c-.86-.71-1.71-1.06-2.54-1.06-.73,0-1.33.31-1.8.93-.47.62-.7,1.58-.7,2.89,0,2.49.78,3.74,2.35,3.74.51,0,1.01-.13,1.47-.39.47-.26.87-.55,1.22-.88v-5.22Z" /><path class="cls-1" d="m86.41,86.48v-1.23c-.5.44-1.01.8-1.52,1.09-.51.29-1.08.43-1.72.43-.94,0-1.67-.29-2.18-.86-.51-.57-.77-1.31-.77-2.21,0-.68.13-1.24.4-1.69.27-.45.65-.8,1.16-1.06.51-.26,1.24-.45,2.2-.56l2.43-.22v-.48c0-.76-.21-1.28-.64-1.55-.42-.28-1.01-.41-1.76-.41-.66,0-1.18.12-1.54.35-.36.23-.62.48-.78.75l-1.33-.81c.3-.55.76-.96,1.38-1.26.62-.29,1.38-.44,2.3-.44,1.42,0,2.43.26,3.05.77.62.51.92,1.41.92,2.67v6.71h-1.62Zm0-5.01l-1.58.15c-1.07.09-1.83.3-2.27.63-.44.32-.66.8-.66,1.42s.15,1.01.44,1.27c.3.26.74.39,1.33.39.24,0,.49-.05.72-.14.24-.09.47-.2.71-.34.23-.13.46-.29.67-.46.22-.17.43-.34.64-.5v-2.41Z" /><path class="cls-1" d="m97.37,86.48v-.98c-.37.36-.82.66-1.34.9-.52.24-1.08.37-1.67.37-1.19,0-2.1-.45-2.75-1.34-.65-.89-.97-2.16-.97-3.81s.35-2.9,1.05-3.86c.7-.96,1.68-1.44,2.92-1.44,1,0,1.91.36,2.75,1.09v-4.95h1.63v14.02h-1.63Zm0-7.65c-.86-.71-1.71-1.06-2.54-1.06-.73,0-1.33.31-1.8.93-.47.62-.7,1.58-.7,2.89,0,2.49.78,3.74,2.35,3.74.51,0,1.01-.13,1.47-.39.47-.26.87-.55,1.22-.88v-5.22Z" /><path class="cls-1" d="m6.72,106.89v-.98c-.37.36-.82.66-1.34.9-.52.24-1.08.37-1.67.37-1.19,0-2.1-.45-2.75-1.34C.32,104.95,0,103.68,0,102.04s.35-2.9,1.05-3.86c.7-.96,1.68-1.44,2.92-1.44,1,0,1.91.36,2.75,1.09v-4.95h1.63v14.02h-1.63Zm0-7.65c-.86-.71-1.71-1.06-2.54-1.06-.73,0-1.33.31-1.8.93-.47.62-.7,1.58-.7,2.89,0,2.49.78,3.74,2.35,3.74.51,0,1.01-.13,1.47-.39.47-.26.87-.55,1.22-.88v-5.22Z" /><path class="cls-1" d="m12.73,102.15c0,1.31.22,2.24.67,2.79.45.56,1.16.83,2.15.83.44,0,.82-.09,1.16-.28.33-.18.65-.48.96-.9l1.34.83c-.38.56-.83,1-1.37,1.3-.54.3-1.27.46-2.19.46-1.47,0-2.56-.43-3.29-1.28-.72-.85-1.09-2.14-1.09-3.87s.35-3.14,1.06-4.01c.71-.86,1.77-1.29,3.2-1.29,1.28,0,2.24.37,2.88,1.11.64.74.96,1.87.96,3.4v.9h-6.42Zm4.84-1.27c-.01-.88-.2-1.57-.56-2.06-.36-.49-.95-.73-1.76-.73s-1.35.22-1.74.66c-.39.44-.64,1.15-.77,2.13h4.82Z" /><path class="cls-1" d="m37.05,100.38c0,2.34-.44,4.06-1.32,5.15-.88,1.09-2.21,1.64-3.98,1.64s-3.13-.56-4-1.67c-.87-1.11-1.3-2.82-1.3-5.12s.43-3.99,1.29-5.11c.86-1.12,2.2-1.68,4.01-1.68s3.12.55,3.99,1.65c.87,1.1,1.31,2.81,1.31,5.14Zm-1.83,0c0-1.8-.27-3.12-.81-3.97-.54-.85-1.43-1.27-2.66-1.27s-2.12.42-2.66,1.27c-.54.85-.81,2.17-.81,3.97s.27,3.14.82,3.98c.55.84,1.43,1.26,2.65,1.26s2.09-.42,2.64-1.25c.55-.83.83-2.16.83-3.99Z" /><path class="cls-1" d="m41.92,94.84c0,.77-.11,1.47-.34,2.1-.23.63-.47,1.09-.71,1.39h-.99c.22-.28.41-.68.56-1.22.15-.54.23-1.01.23-1.4-.37,0-.64-.08-.8-.25-.16-.17-.24-.43-.24-.8,0-.35.09-.62.26-.8.17-.18.46-.27.87-.27s.73.11.9.32c.17.21.26.52.26.94Z" /><path class="cls-1" d="m52.78,106.89v-5.96h-5.93v5.96h-1.74v-13.03h1.74v5.49h5.93v-5.49h1.74v13.03h-1.74Z" /><path class="cls-1" d="m59.7,94.52c0,.38-.08.63-.25.77-.17.14-.44.2-.81.2-.4,0-.67-.08-.82-.25-.15-.17-.23-.41-.23-.72,0-.33.08-.58.24-.73.16-.15.43-.23.8-.23s.66.07.82.22c.16.15.24.39.24.74Zm-1.87,12.38v-9.87h1.62v9.87h-1.62Z" /><path class="cls-1" d="m70.5,106.68c0,1.32-.33,2.31-.98,2.96-.66.65-1.74.97-3.26.97s-2.64-.31-3.59-.92l.6-1.31c.85.59,1.84.88,2.98.88.92,0,1.59-.19,2-.58.41-.39.62-1.02.62-1.91v-1.16c-.37.36-.81.66-1.33.9-.51.24-1.07.37-1.68.37-1.21,0-2.13-.43-2.77-1.29-.63-.86-.95-2.11-.95-3.74s.35-2.86,1.06-3.77c.71-.9,1.68-1.36,2.91-1.36,1,0,1.91.36,2.75,1.09v-.81h1.63v9.66Zm-1.63-7.44c-.86-.71-1.71-1.06-2.54-1.06s-1.44.32-1.87.96c-.42.64-.64,1.53-.64,2.68,0,1.27.2,2.19.59,2.76.4.57.98.86,1.76.86.9,0,1.8-.42,2.69-1.27v-4.93Z" /><path class="cls-1" d="m81.55,106.68c0,1.32-.33,2.31-.98,2.96-.66.65-1.74.97-3.26.97s-2.64-.31-3.59-.92l.6-1.31c.85.59,1.84.88,2.98.88.92,0,1.59-.19,2-.58.41-.39.62-1.02.62-1.91v-1.16c-.37.36-.81.66-1.33.9-.51.24-1.07.37-1.68.37-1.21,0-2.13-.43-2.77-1.29-.63-.86-.95-2.11-.95-3.74s.35-2.86,1.06-3.77c.71-.9,1.68-1.36,2.91-1.36,1,0,1.91.36,2.75,1.09v-.81h1.63v9.66Zm-1.63-7.44c-.86-.71-1.71-1.06-2.54-1.06s-1.44.32-1.87.96c-.42.64-.64,1.53-.64,2.68,0,1.27.2,2.19.59,2.76.4.57.98.86,1.76.86.9,0,1.8-.42,2.69-1.27v-4.93Z" /><path class="cls-1" d="m86.62,94.52c0,.38-.08.63-.25.77-.17.14-.44.2-.81.2-.4,0-.67-.08-.82-.25-.15-.17-.23-.41-.23-.72,0-.33.08-.58.24-.73.16-.15.43-.23.8-.23s.66.07.82.22c.16.15.24.39.24.74Zm-1.87,12.38v-9.87h1.62v9.87h-1.62Z" /><path class="cls-1" d="m95.77,106.89v-5.82c0-.94-.05-1.57-.14-1.88-.09-.31-.25-.54-.46-.68-.21-.14-.52-.21-.93-.21s-.9.16-1.45.47c-.55.31-1.09.7-1.6,1.15v6.97h-1.62v-9.87h1.62v1.47c.46-.46.99-.86,1.6-1.22.61-.35,1.22-.53,1.84-.53.95,0,1.65.27,2.1.81.45.54.67,1.46.67,2.75v6.59h-1.62Z" /><path class="cls-1" d="m107.27,104.23c0,.92-.33,1.65-.98,2.17-.65.52-1.58.79-2.79.79-.82,0-1.56-.16-2.21-.47-.65-.31-1.13-.75-1.43-1.31l1.3-.79c.5.8,1.29,1.2,2.39,1.2.72,0,1.25-.14,1.6-.41.35-.27.53-.64.53-1.11,0-.28-.06-.5-.19-.67-.13-.17-.32-.32-.58-.45-.26-.13-.8-.3-1.62-.52-1.17-.27-2-.64-2.48-1.12-.48-.48-.72-1.11-.72-1.9,0-.87.31-1.57.94-2.1.63-.53,1.5-.79,2.61-.79.86,0,1.58.17,2.16.51.58.34,1.01.75,1.28,1.22l-1.29.79c-.51-.77-1.25-1.16-2.19-1.16-.54,0-1,.12-1.37.36-.37.24-.56.61-.56,1.11,0,.45.16.77.49.97.33.2.84.39,1.53.56,1.12.29,1.89.56,2.32.81.43.25.74.56.95.93.2.37.31.83.31,1.4Z" /><path class="cls-1" d="m32.75,55.08c-1.94-2.55-3.35-5.67-4.23-9.33-.36,1.38-.86,2.5-1.5,3.36-1.46,1.94-4.02,2.92-7.68,2.92-2.57,0-4.53-.43-5.87-1.3-1.34-.86-2.32-2.22-2.93-4.06-.61-1.84-.92-4.37-.92-7.58V11.32H0v28.46c0,7.46,1.52,12.79,4.56,15.99,3.04,3.2,7.99,4.79,14.86,4.79s11.31-1.43,14.35-4.29c-.35-.38-.69-.78-1.01-1.2Z" /><path class="cls-1" d="m71.51,39.43c.08-1.14.12-2.32.12-3.55,0-1.84-.09-3.58-.27-5.25h16.8V11.32h9.66v49.17h-9.66v-21.05h-16.65Z" /><path class="cls-1" d="m69.87,35.89c0,8.21-1.73,14.37-5.2,18.46-3.47,4.09-8.51,6.14-15.13,6.14-6.98,0-12.12-2.16-15.41-6.47-3.29-4.31-4.93-10.36-4.93-18.14s1.64-13.88,4.93-18.17c3.29-4.29,8.42-6.43,15.41-6.43s12.18,2.14,15.44,6.43c3.26,4.29,4.9,10.34,4.9,18.17Zm-9.93,0c0-5.6-.79-9.67-2.37-12.23-1.58-2.56-4.26-3.84-8.04-3.84s-6.45,1.28-8.04,3.84c-1.58,2.56-2.37,6.64-2.37,12.23s.8,9.67,2.41,12.23c1.6,2.56,4.27,3.84,8,3.84s6.45-1.28,8.04-3.84c1.58-2.56,2.37-6.64,2.37-12.23Z" /></g></svg>