<?xml version="1.0" encoding="utf-8"?>
<!-- Generator: Adobe Illustrator 27.4.0, SVG Export Plug-In . SVG Version: 6.00 Build 0)  -->
<svg version="1.1" id="Layer_1" xmlns="http://www.w3.org/2000/svg" xmlns:xlink="http://www.w3.org/1999/xlink" x="0px" y="0px"
	 viewBox="0 0 1280 720" style="enable-background:new 0 0 1280 720;" xml:space="preserve">
<style type="text/css">
	.st0{fill:#003C58;}
</style>
<g>
	<path class="st0" d="M1272.2,640.6v-14.3h-28.6v-23.4h26v-13.4h-26v-19.9h28.2v-14.3h-44.2V641h44.7V640.6z M1182.8,640.6v-14.7
		h-29v-71.1h-16v85.8L1182.8,640.6L1182.8,640.6z M1089.2,554.7h-16v85.8h16V554.7z M986.9,640.6v-39h21.7v39h16v-85.8h-16v33.8
		h-21.7v-33.8h-16v85.8H986.9z M908.4,611.1c0,6.9-0.9,11.7-2.2,14.3c-1.3,2.6-3.9,3.9-7.4,3.9c-3.9,0-6.5-1.7-7.8-4.8
		c-1.3-3.5-2.2-12.6-2.2-28.2c0-14.3,0.9-23,2.2-26c1.3-3,3.9-4.8,7.8-4.8c3,0,5.2,1.3,6.9,3.5c1.7,2.2,2.2,5.6,2.2,10.4v2.2h15.6
		c0-10-2.2-17.3-6.1-21.7c-3.9-4.3-10.4-6.9-19.1-6.9c-5.2,0-9.5,0.9-13,2.6c-3.5,1.7-6.5,4.8-8.7,8.7c-1.3,2.6-2.6,6.5-3.5,11.7
		c-0.9,5.2-0.9,12.1-0.9,20.8c0,13,0.4,22.1,1.7,27.3s3,9.1,6.1,12.1c2.2,2.2,4.8,3.9,7.4,4.8c3,0.9,6.5,1.7,10.4,1.7
		c8.7,0,15.2-2.2,19.1-7.4c4.3-4.8,6.1-12.1,6.1-22.1c0-0.4,0-0.9,0-1.7c0-0.9,0-1.3,0-1.7h-15.6L908.4,611.1L908.4,611.1z"/>
	<path class="st0" d="M19.6,180.6v325.6c0,40.3,32.5,44.7,55.1,50.3l107.1,26.9l104.1-26c38.6-8.2,55.9-18.2,55.9-51.6V180.6
		L19.6,180.6L19.6,180.6z M309.7,493.2c0.4,28.6-13.4,27.7-77.2,45.5l-51.2,12.6c-0.4,0-31.2-6.9-53.3-12.6
		c-70.7-16.9-76.3-19.1-76.3-52V211.8h257.5v281.4H309.7z"/>
	<path class="st0" d="M178.7,146.7h5.2V158h-5.2V146.7z M178.3,56.6h6.1v11.3h-6.1V56.6z M187.4,146.3l6.1-1.3l2.6,13h-7.4
		L187.4,146.3z M176.1,146.3l-6.1-0.9l-2.6,12.6h7.8L176.1,146.3z M196.1,144.1l4.3-1.7l8.2,14.7l-7.4,0.9L196.1,144.1z
		 M167.9,144.6l-4.3-1.7l-8.7,14.7l7.8,0.4L167.9,144.6z M203,141.1l4.8-3l13.9,18.2l-8.2,0.9L203,141.1z M160.5,141.1l-4.8-3
		l-13.9,18.2l7.8,0.9L160.5,141.1z M209.5,136.3l3.9-3.9l24.7,21.2l-11.3,1.7L209.5,136.3z M154,136.8l-3.9-3.9l-24.3,20.8l11.3,1.7
		L154,136.8z M215.6,129.8l2.6-4.3l44.2,23.4l-15.2,3L215.6,129.8z M147.5,129.8l-2.6-4.3l-44.2,23.8l15.2,3L147.5,129.8z
		 M219.9,121.6l1.7-4.8l75,22.5l-19.5,6.1L219.9,121.6z M143.2,122l-1.7-4.8l-75,22.5l19.5,6.1L143.2,122z M222.1,114.2l0.9-5.6
		l108.8,13.9l-16.9,9.5L222.1,114.2z M140.6,114.2l-0.4-5.6L31.8,122.5l16.9,9.5L140.6,114.2z M186.5,67.8l5.2,0.9l3.9-12.1h-6.9
		L186.5,67.8z M176.6,67.8l-5.2,0.9l-3.5-12.1h6.9L176.6,67.8z M195.2,70l5.2,2.2l7.8-14.3l-6.5-0.4L195.2,70z M168.3,69.6l-5.2,2.2
		l-7.8-13.9l6.5-0.4L168.3,69.6z M203,73.5l3.9,2.6l13-17.3l-6.9-0.4L203,73.5z M160.1,73.5l-3.9,2.6l-12.6-17.3l6.9-0.4L160.1,73.5
		z M209.5,78.2l2.6,2.2L236,60.9l-9.5-1.3L209.5,78.2z M154.5,77.4l-2.6,2.2L128.4,60l9.5-1.7L154.5,77.4z M213.8,82.6l3,4.3
		l43.4-21.7L242,61.8L213.8,82.6z M149.3,82.1l-3,4.3l-42.9-21.7l18.2-3.5L149.3,82.1z M218.6,89.9l1.7,4.3L288.9,73l-15.2-5.2
		L218.6,89.9z M144.5,89.9l-1.7,4.3L74.2,73l15.2-5.2L144.5,89.9z M221.2,96l0.9,4.3l102.3-13.4l-16.5-7.8L221.2,96z M141.9,96
		l-0.9,4.3l-102.3-13l16.5-7.8L141.9,96z M223,106.9l-0.4-4.8l118.8-2.6v11.7L223,106.9z M140.1,106.9l0.4-4.8L20.1,99.5v12.1
		L140.1,106.9z"/>
	<polygon class="st0" points="200.8,133.3 181.3,119.4 161.8,133.3 169.2,110.8 150.1,96.5 174,96.5 181.3,73.5 189.1,96.5 
		213,96.5 193.5,110.8 	"/>
	<path class="st0" d="M200.8,290.2l-19.1-13l-19.1,13l6.5-22.1L151,254.3l23-0.4l7.8-21.7l7.8,21.7l23,0.4l-18.2,13.9L200.8,290.2z
		 M193.9,504.9l18.2-13.9l-23-0.4l-7.8-21.7l-7.8,21.7l-23,0.4l18.2,13.9l-6.5,22.1l19.1-13l19.1,13L193.9,504.9z M115,355.7
		l18.2-13.9l-23-0.4l-7.8-21.7l-7.8,21.7l-23,0.4l18.2,13.9l-6.5,22.1l19.1-13l19.1,13L115,355.7z M238.1,400.8l13.4-10.4l-16.9-0.4
		l-5.6-16l-5.6,16l-16.9,0.4l13.4,10.4l-4.8,16.5l13.9-9.5l13.9,9.5L238.1,400.8z M271.5,337.1l18.2-13.9l-23-0.4l-7.8-21.7
		l-7.8,21.7l-23,0.4l18.2,13.9l-6.5,22.1l19.1-13l19.1,13L271.5,337.1z"/>
	<path class="st0" d="M1209.3,489.3c4.8,7.4,13.9,10.8,26.4,10.8s21.7-3.5,26.4-10.8c4.8-7.4,7.4-20.4,7.4-39.9
		c0-19.5-2.6-32.9-7.4-39.9c-4.8-7.4-13.9-10.8-26.4-10.8s-21.2,3.5-26.4,10.8c-4.8,7.4-7.4,20.4-7.4,39.9
		C1201.9,468.9,1204.5,482.3,1209.3,489.3 M1224.9,441.6c0-11.3,0.9-18.6,2.2-21.7c1.7-3,4.3-4.3,8.7-4.3c4.3,0,7.4,1.7,8.7,4.8
		c1.7,3.5,2.2,11.3,2.2,23.8v5.6v3.9c0,13-0.9,21.2-2.2,24.3c-1.7,3-4.3,4.8-9.1,4.8c-4.3,0-6.9-1.7-8.7-5.2
		c-1.3-3.5-2.2-12.6-2.2-27.3v-1.7v-6.9H1224.9z M1126,467.6c0,0.9,0,1.3,0,1.7c0,10.8,2.6,18.2,7.4,23.4c5.2,4.8,13,7.4,23.4,7.4
		c10,0,17.8-2.2,23.4-6.9c5.6-4.8,8.2-11.3,8.2-19.9c0-10.8-8.2-21.2-24.3-32.1c-2.2-1.3-3.9-2.6-5.2-3.5c-5.2-3.5-8.2-6.1-10-8.2
		c-1.3-1.7-2.2-3.9-2.2-6.5c0-2.6,0.9-4.3,2.6-6.1c1.7-1.7,3.9-2.2,6.5-2.2c3.9,0,6.5,0.9,8.2,3.5c1.7,2.6,2.6,5.6,2.6,10.4v2.2
		h19.5v-2.2c0-10-2.6-17.8-7.4-22.5c-4.8-4.8-12.1-7.4-22.1-7.4c-10,0-17.8,2.2-23,6.9c-5.2,4.3-7.8,10.8-7.8,19.5
		c0,10.8,8.2,21.7,24.3,32.9c0.4,0.4,0.9,0.4,0.9,0.9c0.9,0.4,2.6,1.7,4.3,2.6c7.4,4.8,10.8,9.1,10.8,12.6c0,3-0.9,5.2-2.6,6.9
		c-1.7,1.7-4.3,2.6-7.4,2.6c-3.9,0-6.9-1.3-8.7-3.5c-1.7-2.2-2.6-6.5-2.6-11.7v-2.6h-19.9C1126,465.8,1126,466.7,1126,467.6
		 M1097.9,390.8l25.6-23.8h-21.2l-14.7,23.8H1097.9z M1110.4,401.2h-22.1v96.2h22.1V401.2z M1072.7,497.5c-1.3-2.2-2.2-4.3-2.6-6.5
		c-0.4-2.2-0.9-4.8-0.9-7.4V429c0-11.3-2.2-19.5-6.9-23.8c-4.8-4.3-13-6.9-24.7-6.9c-11.7,0-20.4,2.6-25.6,7.4
		c-5.2,4.8-7.8,13-7.8,23.8h21.7v-1.7c0-4.8,0.9-7.8,3-10c1.7-2.2,4.8-3.5,9.1-3.5c3,0,5.6,0.9,7.4,2.6c1.7,1.7,2.6,3.9,2.6,6.9
		c0,4.8-4.3,9.5-13,13c-2.2,0.9-3.5,1.3-4.3,2.2c-10.8,4.8-17.8,9.5-21.2,14.3c-3.5,4.8-5.2,10.8-5.2,19.1c0,8.7,2.2,15.6,6.1,20.8
		c3.9,5.2,10,7.4,17.3,7.4c4.8,0,9.1-0.9,13-3c3.9-2.2,6.5-4.8,9.1-8.7c0.4,2.6,0.9,4.8,1.3,6.1c0.4,1.3,0.9,2.6,1.3,3.5
		L1072.7,497.5L1072.7,497.5z M1048,462.4c0,6.9-0.9,11.7-3,15.2c-2.2,3.5-4.8,5.2-8.7,5.2c-3.5,0-6.1-0.9-7.4-3
		c-1.7-2.2-2.2-5.2-2.2-9.5s1.3-8.7,4.3-11.7c3-3,8.7-6.9,16.9-11.3L1048,462.4L1048,462.4z M970.8,497.5v-56.4
		c0-4.8,1.3-8.7,4.3-11.3c2.6-3,6.5-4.3,11.3-4.3c1.3,0,2.2,0,3,0c0.9,0,1.7,0,2.6,0.4v-26.9c-5.2,0-9.1,1.3-12.6,4.3
		c-3.5,2.6-6.5,7.4-10,13.9v-15.6h-21.2v96.2L970.8,497.5L970.8,497.5z M932.2,497.5c-1.3-2.2-2.2-4.3-2.6-6.5
		c-0.4-2.2-0.9-4.8-0.9-7.4V429c0-11.3-2.2-19.5-6.9-23.8c-4.8-4.3-13-6.9-24.7-6.9s-20.4,2.6-25.6,7.4c-5.2,4.8-7.8,13-7.8,23.8
		h21.7v-1.7c0-4.8,0.9-7.8,3-10c2.2-2.2,4.8-3.5,9.1-3.5c3.5,0,5.6,0.9,7.4,2.6c1.7,1.7,2.6,3.9,2.6,6.9c0,4.8-4.3,9.5-13,13
		c-2.2,0.9-3.5,1.3-4.3,2.2c-10.8,4.8-17.8,9.5-21.2,14.3c-3.5,4.8-5.2,10.8-5.2,19.1c0,8.7,2.2,15.6,6.1,20.8s10,7.4,17.3,7.4
		c4.8,0,9.1-0.9,13-3c3.9-2.2,6.5-4.8,9.1-8.7c0.4,2.6,0.9,4.8,1.3,6.1c0.4,1.3,0.9,2.6,1.3,3.5L932.2,497.5L932.2,497.5z
		 M907.5,462.4c0,6.9-0.9,11.7-3,15.2c-2.2,3.5-4.8,5.2-8.7,5.2c-3.5,0-6.1-0.9-7.4-3c-1.7-2.2-2.2-5.2-2.2-9.5s1.3-8.7,4.3-11.7
		c3-3.5,8.7-6.9,16.9-11.3L907.5,462.4L907.5,462.4z M804.3,530v-40.8c1.7,3.5,4.3,6.5,7.4,8.2s6.9,2.6,11.3,2.6
		c9.1,0,15.6-3.9,19.5-10.8c3.9-7.4,5.6-20.8,5.6-40.3c0-18.6-1.7-32.1-5.6-39.5c-3.9-7.4-10.4-11.3-19.9-11.3
		c-4.8,0-8.7,0.9-12.1,3c-3.5,2.2-6.1,5.2-7.8,9.5v-10h-21.2v128.8h23V530z M806.1,422c1.7-3.5,4.8-5.2,9.1-5.2
		c3.9,0,6.5,1.7,8.2,5.6c1.3,3.9,2.2,12.6,2.2,26.4c0,14.3-0.9,23.4-2.2,26.9c-1.3,3.5-4.3,5.2-8.2,5.2c-4.3,0-7.4-2.2-9.1-6.5
		c-1.7-4.3-2.6-13.9-2.6-29.9C803.9,433.3,804.3,425.5,806.1,422 M762.7,369.2h-22.1v128.3h22.1V369.2z M725,497.5
		c-1.3-2.2-2.2-4.3-2.6-6.5c-0.4-2.2-0.9-4.8-0.9-7.4V429c0-11.3-2.6-19.5-6.9-23.8c-4.3-4.3-13-6.9-24.7-6.9s-20.4,2.6-25.6,7.4
		c-5.2,4.8-7.8,13-7.8,23.8h21.7v-1.7c0-4.8,0.9-7.8,3-10c1.7-2.2,4.8-3.5,9.1-3.5c3,0,5.6,0.9,7.4,2.6c1.7,1.7,2.6,3.9,2.6,6.9
		c0,4.8-4.3,9.5-13,13c-1.7,0.9-3.5,1.3-4.3,2.2c-10.4,4.8-17.8,9.5-21.2,14.3c-3.5,4.8-5.2,10.8-5.2,19.1c0,8.7,2.2,15.6,6.1,20.8
		c3.9,5.2,10,7.4,16.9,7.4c4.8,0,9.1-0.9,13-3c3.9-2.2,6.9-4.8,9.1-8.7c0.4,2.6,0.9,4.8,1.3,6.1c0.4,1.3,0.9,2.6,1.3,3.5L725,497.5
		L725,497.5z M700.3,462.4c0,6.9-0.9,11.7-3,15.2c-1.7,3.5-4.8,5.2-8.7,5.2c-3.5,0-6.1-0.9-7.4-3c-1.7-2.2-2.6-5.2-2.6-9.5
		s1.3-8.7,4.3-11.7c3-3,8.7-6.9,16.9-11.3L700.3,462.4L700.3,462.4z M624.9,497.5l26.9-128.3h-25.1l-17.3,102.3l-19.1-102.3h-25.6
		l28.6,128.3H624.9L624.9,497.5z M517.8,478.8c-1.7,3-4.8,4.3-8.7,4.3c-3.9,0-6.9-1.7-8.7-5.6c-1.7-3.9-2.6-10-2.6-19.1
		c0-1.7,0-3,0-3.9s0-1.7,0.4-2.2H542V445c0-10.8-0.4-18.6-1.7-23.4c-0.9-4.8-2.6-8.7-5.2-12.1c-2.6-3.9-6.5-6.5-10.8-8.2
		c-4.3-1.7-9.5-2.6-15.6-2.6c-6.1,0-11.3,0.9-16,2.6c-4.8,1.7-8.2,4.3-10.8,7.4c-2.6,3-4.8,7.4-5.6,12.6c-1.3,5.2-1.7,13.4-1.7,25.1
		c0,14.7,0.4,25.1,1.7,30.8c1.3,5.6,3.5,10.4,6.5,13.9c2.6,3,6.1,5.6,10,6.9c3.9,1.3,9.1,2.2,15.2,2.2c11.3,0,19.9-2.6,25.1-7.8
		c5.2-5.2,7.8-13,7.8-24.3c0-0.4,0-0.9,0-1.7s0-1.3,0-1.7h-21.2C520.4,471,519.5,476.2,517.8,478.8 M497.8,432.9
		c0-6.5,0.9-10.8,2.6-13.4c1.7-2.6,4.3-3.9,8.2-3.9c3.9,0,6.9,1.3,8.7,3.9c1.7,2.6,2.6,6.9,2.6,13.4v3.9h-21.7
		C498.3,436.4,497.8,435.1,497.8,432.9 M437.6,497.5h21.2V369.2h-22.5V409c-1.7-3.5-4.3-6.5-7.4-8.2c-3-1.7-6.9-2.6-11.3-2.6
		c-9.1,0-15.6,3.9-19.5,10.8c-3.9,7.4-5.6,20.8-5.6,40.3c0,18.6,1.7,32.1,5.6,39.5c3.9,7.4,10.4,11.3,19.5,11.3
		c4.8,0,8.7-0.9,12.1-3s6.1-5.2,7.8-9.5V497.5L437.6,497.5z M417.2,422.9c1.3-3.5,4.3-5.6,8.2-5.6c4.3,0,7.4,2.2,9.1,6.5
		c1.7,4.3,2.6,14.7,2.6,32.1c0,10.8-0.9,17.8-2.6,21.2c-1.7,3.5-4.8,5.2-9.1,5.2c-3.9,0-6.5-1.7-8.2-5.6c-1.3-3.9-2.2-13-2.2-28.2
		C415,434.6,415.9,426.4,417.2,422.9"/>
	<path class="st0" d="M1245.7,308.9h21.2V180.6h-22.1v39.9c-1.7-3.5-4.3-6.5-7.4-8.2c-3-1.7-6.9-2.6-11.3-2.6
		c-9.1,0-15.6,3.5-19.5,10.8s-5.6,20.8-5.6,40.3c0,18.6,1.7,32.1,5.6,39.5c3.9,7.4,10.4,10.8,19.5,10.8c4.8,0,8.7-0.9,12.1-3
		s6.1-5.2,7.8-9.5L1245.7,308.9L1245.7,308.9z M1225.8,233.9c1.3-3.5,4.3-5.6,8.2-5.6c4.3,0,7.4,2.2,9.1,6.5
		c1.7,4.3,2.6,14.7,2.6,32.1c0,10.8-0.9,17.8-2.6,21.2s-4.8,5.2-9.1,5.2c-3.9,0-6.5-1.7-8.2-5.6c-1.7-3.9-2.2-13-2.2-28.2
		C1223.6,246,1224,237.8,1225.8,233.9 M1179.4,308.9c-1.3-2.2-2.2-4.3-2.6-6.5s-0.9-4.8-0.9-7.4v-54.6c0-11.3-2.2-19.5-6.9-23.8
		c-4.8-4.3-13-6.9-24.7-6.9c-11.7,0-20.4,2.6-25.6,7.4c-5.2,4.8-7.8,13-7.8,23.8h21.7v-1.7c0-4.8,0.9-8.2,3-10.4
		c2.2-2.2,4.8-3.5,9.1-3.5c3,0,5.6,0.9,7.4,2.6c1.7,1.7,2.6,3.9,2.6,6.9c0,5.2-4.3,9.5-13,13c-2.2,0.9-3.5,1.3-4.3,2.2
		c-10.8,4.8-17.8,9.5-21.2,14.3s-5.2,10.8-5.2,19.1c0,8.7,2.2,15.6,6.1,20.8c3.9,5.2,10,7.4,17.3,7.4c4.8,0,9.1-0.9,13-3
		c3.9-2.2,6.5-5.2,9.1-8.7c0.4,2.6,0.9,4.8,1.3,6.1c0.4,1.3,0.9,2.6,1.3,3.5L1179.4,308.9L1179.4,308.9z M1154.7,273.8
		c0,6.9-0.9,11.7-3,15.2c-2.2,3.5-4.8,5.2-8.7,5.2c-3.5,0-6.1-0.9-7.4-3c-1.7-2.2-2.2-5.2-2.2-9.5c0-4.3,1.3-8.7,4.3-11.7
		c3-3,8.7-6.9,16.9-11.3L1154.7,273.8L1154.7,273.8z M1063.2,308.9h21.2V180.6h-22.5v39.9c-1.7-3.5-4.3-6.5-7.4-8.2
		c-3-1.7-6.9-2.6-11.3-2.6c-9.1,0-15.6,3.5-19.5,10.8c-3.9,7.4-5.6,20.8-5.6,40.3c0,18.6,1.7,32.1,5.6,39.5
		c3.9,7.4,10.4,10.8,19.5,10.8c4.8,0,8.7-0.9,12.1-3s6.1-5.2,7.8-9.5L1063.2,308.9L1063.2,308.9z M1042.8,233.9
		c1.3-3.5,4.3-5.6,8.2-5.6c4.3,0,7.4,2.2,9.1,6.5c1.7,4.3,2.6,14.7,2.6,32.1c0,10.8-0.9,17.8-2.6,21.2c-1.7,3.5-4.8,5.2-9.1,5.2
		c-3.9,0-6.5-1.7-8.2-5.6c-1.3-3.9-2.2-13-2.2-28.2C1040.6,246,1041.5,237.8,1042.8,233.9 M992.9,212.2h-22.1v96.2h22.1V212.2z
		 M992.9,180.6h-22.1v19.9h22.1V180.6z M883.7,278.5c0,0.9,0,1.3,0,1.7c0,10.8,2.6,18.2,7.4,23.4c5.2,5.2,13,7.4,23.4,7.4
		c10,0,17.8-2.2,23.4-6.9c5.6-4.8,8.2-11.3,8.2-19.9c0-10.8-8.2-21.2-24.3-32.1c-2.2-1.7-3.9-2.6-5.2-3.5c-5.2-3.5-8.2-6.1-10-7.8
		c-1.3-1.7-2.2-3.9-2.2-6.5s0.9-4.3,2.6-6.1c1.7-1.3,3.9-2.2,6.5-2.2c3.9,0,6.5,0.9,8.2,3.5c1.7,2.6,2.6,5.6,2.6,10.4v2.2H944V240
		c0-10-2.6-17.8-7.4-22.5c-4.8-4.8-12.1-7.4-22.1-7.4c-10,0-17.8,2.2-23,6.9c-5.2,4.3-7.8,10.8-7.8,19.5c0,10.8,8.2,21.7,24.3,32.9
		c0.4,0.4,0.9,0.4,0.9,0.9c0.9,0.4,2.6,1.7,4.3,2.6c7.4,4.8,10.8,9.1,10.8,12.6c0,3-0.9,5.2-2.6,6.9c-1.7,1.7-4.3,2.6-7.4,2.6
		c-3.9,0-6.9-1.3-8.7-3.5c-1.7-2.2-2.6-6.5-2.6-11.7v-2.6h-19.9C883.7,277.2,883.7,277.7,883.7,278.5 M843.8,308.9v-56.4
		c0-4.8,1.3-8.7,4.3-11.3c2.6-2.6,6.5-4.3,11.3-4.3c1.3,0,2.2,0,3,0c0.9,0,1.7,0,2.6,0.4V210c-4.8,0-9.1,1.3-12.6,4.3
		c-3.5,2.6-6.9,7.4-10,13.9v-15.6h-21.2v96.2L843.8,308.9L843.8,308.9z M771,290.2c-1.7,3-4.8,4.3-8.7,4.3s-6.9-1.7-8.7-5.6
		c-1.7-3.9-2.6-10-2.6-19.1c0-1.7,0-3,0-3.9s0-1.7,0.4-2.2h43.8v-7.4c0-10.8-0.4-18.6-1.7-23.4s-2.6-8.7-5.2-12.1
		c-2.6-3.9-6.5-6.5-10.8-8.2c-4.3-1.7-9.5-2.6-15.6-2.6c-6.1,0-11.3,0.9-16,2.6s-8.2,4.3-10.8,7.4c-2.6,3-4.8,7.4-5.6,12.6
		c-0.9,5.2-1.7,13.4-1.7,25.1c0,14.7,0.4,25.1,1.7,30.8c1.3,5.6,3.5,10.4,6.5,13.9c2.6,3,6.1,5.6,10,6.9c3.9,1.3,9.1,2.2,15.2,2.2
		c11.3,0,19.9-2.6,25.1-7.8c5.2-5.2,7.8-13,7.8-24.3c0-0.4,0-0.9,0-1.7s0-1.3,0-1.7h-21.2C773.6,282.4,772.7,287.2,771,290.2
		 M751,244.3c0-6.5,0.9-10.8,2.6-13.4c1.7-2.6,4.3-3.9,8.2-3.9c3.9,0,6.9,1.3,8.7,3.9c1.7,2.6,2.6,6.9,2.6,13.9v3.9h-21.7
		C751,247.3,751,246,751,244.3 M688.6,308.9l22.1-96.2h-23l-12.1,73.7l-13-73.7h-23.8l22.1,96.2H688.6z M618.8,212.2h-22.1v96.2
		h22.1V212.2z M618.8,180.6h-22.1v19.9h22.1V180.6z M527.7,308.9v-61.6c0-6.9,0.9-11.7,2.6-14.3c1.7-3,4.3-4.3,8.2-4.3
		c3.5,0,5.6,1.3,7.4,3.5c1.3,2.2,2.2,6.5,2.2,12.1v64.6h21.7V233c0-7.4-1.7-13.4-5.6-17.3c-3.9-3.9-9.1-6.1-16-6.1
		c-4.3,0-8.2,0.9-11.7,3s-6.1,5.2-8.7,9.1v-9.5h-21.7v96.2L527.7,308.9L527.7,308.9z M395.9,269c0,15.6,3,26.9,9.1,33.4
		c6.1,6.5,16.5,9.5,31.2,9.5c7.8,0,14.7-1.3,19.9-3.5c5.6-2.2,10.4-5.6,13.9-10c2.2-3,3.9-6.5,4.8-10.4c0.9-3.9,1.3-10.4,1.3-19.1
		v-88.9h-23.4v86.3c0,10-1.3,16.9-3.5,20.4c-2.2,3.5-6.5,5.2-12.6,5.2s-10.4-1.7-13-5.2c-2.6-3.5-3.5-10.4-3.5-19.9v-86.7h-23.8
		L395.9,269L395.9,269z"/>
</g>
</svg>
